<?xml version="1.0" encoding="iso-8859-1"?>
<!-- Generator: Adobe Illustrator 19.0.0, SVG Export Plug-In . SVG Version: 6.00 Build 0)  -->
<svg version="1.1" id="Capa_1" xmlns="http://www.w3.org/2000/svg" xmlns:xlink="http://www.w3.org/1999/xlink" x="0px" y="0px"
	 viewBox="0 0 512 512" style="enable-background:new 0 0 512 512;" xml:space="preserve">
<g>
	<g>
		<path d="M480,192H212.118c-5.69-27.779-32.88-48.161-63.035-41.438C135.021,136.146,116.042,128,96,128
			c-37.514,0-68.357,27.911-73.589,64H10.667C4.771,192,0,196.771,0,202.667v106.667C0,350.5,33.5,384,74.667,384H160
			c41.167,0,74.667-33.5,74.667-74.667V256H480c17.646,0,32-14.354,32-32S497.646,192,480,192z M96,149.333
			c15.958,0,31,7.302,41.292,20.031c2.854,3.531,7.646,4.823,11.896,3.344c19.139-6.922,35.565,3.621,40.863,19.292H43.745
			C48.701,167.686,70.237,149.333,96,149.333z M480,234.667H224c-5.896,0-10.667,4.771-10.667,10.667v64
			c0,29.406-23.917,53.333-53.333,53.333H74.667c-17.361,0-32.652-8.46-42.397-21.333h42.397c5.896,0,10.667-4.771,10.667-10.667
			c0-5.896-4.771-10.667-10.667-10.667H22.411c-0.703-3.448-1.078-7.014-1.078-10.667v-10.667H32
			c5.896,0,10.667-4.771,10.667-10.667S37.896,277.333,32,277.333H21.333V256h53.333c5.896,0,10.667-4.771,10.667-10.667
			c0-5.896-4.771-10.667-10.667-10.667H21.333v-21.333H480c5.875,0,10.667,4.781,10.667,10.667S485.875,234.667,480,234.667z"/>
	</g>
</g>
<g>
</g>
<g>
</g>
<g>
</g>
<g>
</g>
<g>
</g>
<g>
</g>
<g>
</g>
<g>
</g>
<g>
</g>
<g>
</g>
<g>
</g>
<g>
</g>
<g>
</g>
<g>
</g>
<g>
</g>
</svg>
