<?xml version="1.0" encoding="iso-8859-1"?>
<!-- Generator: Adobe Illustrator 19.0.0, SVG Export Plug-In . SVG Version: 6.00 Build 0)  -->
<svg version="1.1" id="Capa_1" xmlns="http://www.w3.org/2000/svg" xmlns:xlink="http://www.w3.org/1999/xlink" x="0px" y="0px"
	 viewBox="0 0 512 512" style="enable-background:new 0 0 512 512;" xml:space="preserve">
<g>
	<g>
		<g>
			<path d="M341.333,149.333H170.667C147.146,149.333,128,168.469,128,192v234.667c0,23.531,19.146,42.667,42.667,42.667h170.667
				c23.521,0,42.667-19.135,42.667-42.667V192C384,168.469,364.854,149.333,341.333,149.333z M362.667,426.667
				c0,11.76-9.563,21.333-21.333,21.333h-71.069c0.931-2.943,2.479-5.572,5.611-8.396c5.854-5.26,10.354-5.271,17.792-5.302
				c8.479-0.031,20.083-0.073,32-10.781c11.896-10.719,13.167-22.26,14.104-30.688c0.813-7.417,1.292-11.885,7.167-17.177
				c5.272-4.741,9.557-5.23,15.729-5.318V426.667z M362.667,349.018c-8.284,0.096-18.951,0.845-29.979,10.784
				c-11.938,10.719-13.208,22.271-14.125,30.698c-0.833,7.417-1.313,11.885-7.167,17.167c-5.854,5.26-10.354,5.271-17.792,5.302
				c-8.479,0.031-20.083,0.073-32,10.781c-9.099,8.197-11.949,16.849-13.217,24.25h-46.355c2.544-1.435,5.117-3.082,7.719-5.427
				c11.896-10.677,13.271-22.198,14.271-30.604c0.342-2.924,0.641-5.44,1.263-7.751c3.029,0.685,6.15,1.116,9.383,1.116
				c15.29,0,28.624-8.156,36.159-20.281c3.57-1.663,6.897-3.634,9.945-6.396c11.917-10.719,13.208-22.26,14.125-30.688
				c0.833-7.417,1.313-11.896,7.208-17.177c5.875-5.302,10.375-5.323,17.854-5.365c8.479-0.052,20.104-0.115,32-10.833
				c5.604-5.042,8.732-10.245,10.708-15.236V349.018z M213.333,362.667c0-11.76,9.563-21.333,21.333-21.333
				c11.771,0,21.333,9.573,21.333,21.333S246.438,384,234.667,384C222.896,384,213.333,374.427,213.333,362.667z M362.667,247.444
				l-3.583,3.358c-11.938,10.74-13.229,22.281-14.167,30.719c-0.813,7.427-1.313,11.906-7.229,17.208
				c-5.875,5.302-10.375,5.323-17.854,5.365c-8.479,0.052-20.104,0.115-32,10.844c-11.902,10.706-13.206,22.23-14.121,30.655
				c-6.605-15.039-21.6-25.592-39.046-25.592C211.146,320,192,339.135,192,362.667c0,12.592,5.587,23.807,14.29,31.624
				c-2.124,5.447-2.922,10.661-3.457,15.158c-0.854,7.198-1.417,11.948-7.354,17.271c-5.833,5.271-10.333,5.281-17.771,5.313
				c-6.755,0.025-15.514,0.315-24.802,5.74c-2.065-3.285-3.573-6.947-3.573-11.104V192c0-11.76,9.563-21.333,21.333-21.333h170.667
				c11.771,0,21.333,9.573,21.333,21.333V247.444z"/>
			<path d="M266.667,234.667c-17.646,0-32,14.354-32,32c0,17.646,14.354,32,32,32c17.646,0,32-14.354,32-32
				C298.667,249.021,284.313,234.667,266.667,234.667z M266.667,277.333c-5.875,0-10.667-4.781-10.667-10.667
				c0-5.885,4.792-10.667,10.667-10.667s10.667,4.781,10.667,10.667C277.333,272.552,272.542,277.333,266.667,277.333z"/>
			<path d="M458.667,149.333h-13.669C429.818,64.579,355.712,0,266.667,0h-21.333C156.288,0,82.182,64.579,67.003,149.333H53.333
				c-5.896,0-10.667,4.771-10.667,10.667s4.771,10.667,10.667,10.667H64.54c-0.208,3.549-0.54,7.066-0.54,10.667
				C64,187.229,68.771,192,74.667,192c5.896,0,10.667-4.771,10.667-10.667v288C85.333,492.865,104.479,512,128,512h256
				c23.521,0,42.667-19.135,42.667-42.667v-288c0,5.896,4.771,10.667,10.667,10.667c5.896,0,10.667-4.771,10.667-10.667
				c0-3.6-0.332-7.117-0.54-10.667h11.207c5.896,0,10.667-4.771,10.667-10.667S464.563,149.333,458.667,149.333z M405.333,469.333
				c0,11.76-9.563,21.333-21.333,21.333H128c-11.771,0-21.333-9.573-21.333-21.333v-320c0-11.76,9.563-21.333,21.333-21.333h256
				c11.771,0,21.333,9.573,21.333,21.333V469.333z M384,106.667H128c-11.723,0-22.353,4.76-30.073,12.443
				c24.323-57.405,81.236-97.776,147.406-97.776h21.333c66.171,0,123.083,40.371,147.406,97.776
				C406.353,111.427,395.723,106.667,384,106.667z"/>
		</g>
	</g>
</g>
<g>
</g>
<g>
</g>
<g>
</g>
<g>
</g>
<g>
</g>
<g>
</g>
<g>
</g>
<g>
</g>
<g>
</g>
<g>
</g>
<g>
</g>
<g>
</g>
<g>
</g>
<g>
</g>
<g>
</g>
</svg>
