<?xml version="1.0" encoding="iso-8859-1"?>
<!-- Generator: Adobe Illustrator 19.0.0, SVG Export Plug-In . SVG Version: 6.00 Build 0)  -->
<svg version="1.1" id="Capa_1" xmlns="http://www.w3.org/2000/svg" xmlns:xlink="http://www.w3.org/1999/xlink" x="0px" y="0px"
	 viewBox="0 0 512.002 512.002" style="enable-background:new 0 0 512.002 512.002;" xml:space="preserve">
<g>
	<g>
		<g>
			<path d="M509.334,323.605c-2.031-2.292-4.938-3.604-8-3.604h-18.073c-12.272-25.749-38.29-42.667-67.26-42.667
				c-14.031,0-27.76,4.083-39.667,11.667c-3.983-5.112-8.673-9.612-13.667-13.703V160.001c0-2.771-1.073-5.427-3-7.417
				c-20.063-20.708-29-48.031-29-88.583V10.668c0-5.896-4.771-10.667-10.667-10.667h-32c-5.719,0-10.417,4.521-10.656,10.229
				c-0.042,0.969-5.333,96.438-53.344,96.438s-53.302-95.469-53.344-96.438c-0.24-5.708-4.938-10.229-10.656-10.229h-32
				c-5.896,0-10.667,4.771-10.667,10.667v52.875c0,40.323-9.219,68.615-29,89.042c-1.927,1.99-3,4.646-3,7.417v97.078
				c-32.574,4.723-58.199,30.348-62.922,62.922H10.668c-3.063,0-5.969,1.313-8,3.604c-2.021,2.302-2.969,5.354-2.583,8.385
				l7.323,58.542c8.646,69.25,67.802,121.469,137.594,121.469h222c69.792,0,128.948-52.219,137.594-121.469l7.323-58.542
				C512.303,328.959,511.355,325.907,509.334,323.605z M362.668,307.018c0.572,0.888,1.337,1.643,1.865,2.556
				c1.594,2.781,4.354,4.688,7.521,5.208c3.146,0.51,6.385-0.427,8.792-2.542c9.885-8.75,22.375-13.573,35.156-13.573
				c17.057,0,32.746,8.174,42.65,21.333h-95.983V307.018z M106.668,164.199c28.604-31.948,32-72.531,32-100.656V21.334h11.458
				c2.917,28.656,16.167,106.667,73.875,106.667s70.958-78.01,73.875-106.667h11.458v42.667c0,27.938,3.396,68.271,32,100.198
				v155.802h-1.078c-5.232-36.089-36.074-64-73.589-64c-14.031,0-27.76,4.083-39.667,11.667c-16.052-20.594-40.792-33-67-33
				c-19.698,0-38.202,6.9-53.333,19.154V164.199z M96.001,277.334c3.083,0,6.042,0.438,8.969,0.938
				c3.448,0.573,6.948-0.563,9.396-3.052c12.167-12.396,28.375-19.219,45.635-19.219c22.917,0,43.552,12.052,55.198,32.25
				c1.594,2.771,4.365,4.677,7.521,5.198c3.104,0.5,6.385-0.417,8.792-2.542c9.885-8.75,22.375-13.573,35.156-13.573
				c25.754,0,47.298,18.353,52.254,42.667H43.747C48.703,295.687,70.247,277.334,96.001,277.334z M483.428,387.886
				c-7.323,58.594-57.375,102.781-116.427,102.781h-222c-59.052,0-109.104-44.188-116.427-102.781l-5.823-46.552h466.5
				L483.428,387.886z"/>
			<path d="M145.001,469.334c5.896,0,10.667-4.771,10.667-10.667s-4.771-10.667-10.667-10.667
				c-37.583,0-69.437-28.125-74.104-65.417c-0.729-5.833-6.052-9.885-11.906-9.26c-5.844,0.729-9.99,6.063-9.26,11.906
				C55.73,433.178,96.689,469.334,145.001,469.334z"/>
			<path d="M405.334,138.668c0,17.646,14.354,32,32,32c17.646,0,32-14.354,32-32c0-17.646-14.354-32-32-32
				C419.689,106.668,405.334,121.022,405.334,138.668z M437.334,128.001c5.885,0,10.667,4.781,10.667,10.667
				c0,5.885-4.781,10.667-10.667,10.667c-5.885,0-10.667-4.781-10.667-10.667C426.668,132.782,431.449,128.001,437.334,128.001z"/>
			<path d="M405.334,106.668c11.76,0,21.333-9.573,21.333-21.333c0-11.76-9.573-21.333-21.333-21.333
				c-11.76,0-21.333,9.573-21.333,21.333C384.001,97.095,393.574,106.668,405.334,106.668z"/>
			<circle cx="416.001" cy="202.668" r="10.667"/>
		</g>
	</g>
</g>
<g>
</g>
<g>
</g>
<g>
</g>
<g>
</g>
<g>
</g>
<g>
</g>
<g>
</g>
<g>
</g>
<g>
</g>
<g>
</g>
<g>
</g>
<g>
</g>
<g>
</g>
<g>
</g>
<g>
</g>
</svg>
