<?xml version="1.0" encoding="iso-8859-1"?>
<!-- Generator: Adobe Illustrator 19.0.0, SVG Export Plug-In . SVG Version: 6.00 Build 0)  -->
<svg version="1.1" id="Capa_1" xmlns="http://www.w3.org/2000/svg" xmlns:xlink="http://www.w3.org/1999/xlink" x="0px" y="0px"
	 viewBox="0 0 512 512" style="enable-background:new 0 0 512 512;" xml:space="preserve">
<g>
	<g>
		<g>
			<path d="M329.417,132.125l-15.379-10.253l15.337-28.174c2.563-4.729,1.208-10.635-3.146-13.771l-5.34-3.832l14.861-21.814
				c3.646-5.479,5.583-11.865,5.583-18.469v-2.521C341.333,14.938,326.396,0,308.042,0c-8.875,0-17.229,3.458-24.021,10.26
				l-21.197,24.167L262.229,34c-4.25-3.063-10.083-2.563-13.771,1.125l-29.372,29.372c-38.844,2.585-69.753,34.685-69.753,74.169
				v330.667C149.333,492.865,168.479,512,192,512h128c23.521,0,42.667-19.135,42.667-42.667V194.25
				C362.667,169.229,350.229,146,329.417,132.125z M299.583,24.844C306.563,17.906,320,23.51,320,33.292v2.521
				c0,2.375-0.688,4.677-1.938,6.542l-14.512,21.299l-23.316-16.733L299.583,24.844z M257.146,56.615l48.979,35.156l-9.919,18.214
				L240.743,73.01L257.146,56.615z M341.333,469.333c0,11.76-9.563,21.333-21.333,21.333H192c-11.771,0-21.333-9.573-21.333-21.333
				V448h170.667V469.333z M341.333,426.667H170.667V277.333h170.667V426.667z M341.333,256H170.667V138.667
				c0-28.365,22.271-51.635,50.229-53.24l96.688,64.448c14.875,9.917,23.75,26.5,23.75,44.375V256z"/>
			<path d="M202.667,170.667c-5.896,0-10.667,4.771-10.667,10.667v21.333c0,5.896,4.771,10.667,10.667,10.667
				c5.896,0,10.667-4.771,10.667-10.667v-21.333C213.333,175.438,208.563,170.667,202.667,170.667z"/>
			<path d="M256,170.667c-5.896,0-10.667,4.771-10.667,10.667v21.333c0,5.896,4.771,10.667,10.667,10.667
				s10.667-4.771,10.667-10.667v-21.333C266.667,175.438,261.896,170.667,256,170.667z"/>
			<path d="M309.333,170.667c-5.896,0-10.667,4.771-10.667,10.667v21.333c0,5.896,4.771,10.667,10.667,10.667
				c5.896,0,10.667-4.771,10.667-10.667v-21.333C320,175.438,315.229,170.667,309.333,170.667z"/>
		</g>
	</g>
</g>
<g>
</g>
<g>
</g>
<g>
</g>
<g>
</g>
<g>
</g>
<g>
</g>
<g>
</g>
<g>
</g>
<g>
</g>
<g>
</g>
<g>
</g>
<g>
</g>
<g>
</g>
<g>
</g>
<g>
</g>
</svg>
