<?xml version="1.0" encoding="iso-8859-1"?>
<!-- Generator: Adobe Illustrator 19.0.0, SVG Export Plug-In . SVG Version: 6.00 Build 0)  -->
<svg version="1.1" id="Capa_1" xmlns="http://www.w3.org/2000/svg" xmlns:xlink="http://www.w3.org/1999/xlink" x="0px" y="0px"
	 viewBox="0 0 512 512" style="enable-background:new 0 0 512 512;" xml:space="preserve">
<g>
	<g>
		<path d="M447.518,373.604l-84.854-65.771v-30.5c0-23.531-19.146-42.667-42.667-42.667h-21.333v-192
			C298.663,19.135,279.518,0,255.997,0S213.33,19.135,213.33,42.667v192h-21.333c-23.521,0-42.667,19.135-42.667,42.667v30.501
			l-84.521,65.52c-19.271,13.771-27.042,39.073-18.854,61.531c7.5,20.604,28.25,34.448,51.667,34.448
			c14.465,0,28.376-2.591,41.417-7.163C140.88,489.919,163.801,512,192.018,512h16.292c20.327,0,38.591-11.284,47.698-29.464
			c9.107,18.18,27.371,29.464,47.698,29.464h16.292c28.212,0,51.13-22.074,52.978-49.818c13.034,4.565,26.939,7.151,41.397,7.151
			c23.417,0,44.167-13.844,51.667-34.448C474.226,412.427,466.455,387.125,447.518,373.604z M234.663,42.667
			c0-11.76,9.563-21.333,21.333-21.333c11.771,0,21.333,9.573,21.333,21.333v192h-42.667V42.667z M170.663,277.333
			c0-11.76,9.563-21.333,21.333-21.333h128c11.771,0,21.333,9.573,21.333,21.333v21.333H170.663V277.333z M97.622,448
			c-14.479,0-27.188-8.198-31.625-20.406c-4.979-13.708-0.479-28.531,11.563-37.135L168.462,320h45.022l-17.362,55.573
			C182.58,418.896,142.997,448,97.622,448z M236.934,472.979c-5.458,10.906-16.417,17.688-28.625,17.688h-16.292
			c-17.646,0-32-14.354-32-32v-6.326c13.271-7.688,24.973-17.764,34.613-29.844c6.116,21.789,23.333,38.798,45.276,44.536
			L236.934,472.979z M255.997,448c-23.521,0-42.667-19.135-42.667-42.667v-9.104L236.195,320h39.604l22.865,76.229v9.104
			C298.663,428.865,279.518,448,255.997,448z M351.997,458.667c0,17.646-14.354,32-32,32h-16.292
			c-12.208,0-23.167-6.781-28.625-17.688l-2.975-5.952c21.931-5.742,39.139-22.741,45.255-44.522
			c9.645,12.086,21.354,22.167,34.637,29.855V458.667z M445.997,427.594C441.559,439.802,428.851,448,414.372,448
			c-45.396,0-84.979-29.104-98.5-72.417L298.509,320h45.023l91.236,70.708C446.476,399.063,450.976,413.885,445.997,427.594z"/>
	</g>
</g>
<g>
</g>
<g>
</g>
<g>
</g>
<g>
</g>
<g>
</g>
<g>
</g>
<g>
</g>
<g>
</g>
<g>
</g>
<g>
</g>
<g>
</g>
<g>
</g>
<g>
</g>
<g>
</g>
<g>
</g>
</svg>
