<?xml version="1.0" encoding="iso-8859-1"?>
<!-- Generator: Adobe Illustrator 19.0.0, SVG Export Plug-In . SVG Version: 6.00 Build 0)  -->
<svg version="1.1" id="Capa_1" xmlns="http://www.w3.org/2000/svg" xmlns:xlink="http://www.w3.org/1999/xlink" x="0px" y="0px"
	 viewBox="0 0 512 512" style="enable-background:new 0 0 512 512;" xml:space="preserve">
<g>
	<g>
		<g>
			<path d="M309.333,234.667H202.667c-5.896,0-10.667,4.771-10.667,10.667v32c0,35.292,28.708,64,64,64s64-28.708,64-64v-32
				C320,239.438,315.229,234.667,309.333,234.667z M298.667,277.333C298.667,300.865,279.521,320,256,320
				s-42.667-19.135-42.667-42.667V256h85.333V277.333z"/>
			<path d="M469.333,160c0-5.896-4.771-10.667-10.667-10.667S448,154.104,448,160c0,35.958-16.688,74.667-53.333,74.667
				c-33.042,0-53.333-55.917-53.333-96V85.333C341.333,38.281,303.063,0,256,0s-85.333,38.281-85.333,85.333v53.333
				c0,40.083-20.292,96-53.333,96C80.688,234.667,64,195.958,64,160c0-5.896-4.771-10.667-10.667-10.667
				c-5.896,0-10.667,4.771-10.667,10.667c0,42.802,20.341,88.099,64,94.674v2.841c-18.346,4.77-32,21.326-32,41.151
				c0,12.805,5.786,24.174,14.746,32c-8.96,7.826-14.746,19.195-14.746,32c0,20.417,14.417,37.531,33.604,41.698
				c-1.063,3.74-1.604,7.646-1.604,11.635c0,23.531,19.146,42.667,42.667,42.667c4,0,7.896-0.542,11.625-1.604
				c4.167,19.188,21.292,33.604,41.708,33.604c5.188,0,10.271-0.958,15.063-2.792C224.646,502.188,239.292,512,256,512
				s31.354-9.813,38.271-24.125c4.792,1.833,9.875,2.792,15.063,2.792c20.417,0,37.542-14.417,41.708-33.604
				c3.729,1.063,7.625,1.604,11.625,1.604c23.521,0,42.667-19.135,42.667-42.667c0-3.99-0.542-7.896-1.604-11.635
				c19.188-4.167,33.604-21.281,33.604-41.698c0-12.805-5.786-24.174-14.746-32c8.96-7.826,14.746-19.195,14.746-32
				c0-19.826-13.654-36.382-32-41.151v-2.841C448.992,248.099,469.333,202.802,469.333,160z M192,85.333c0-35.292,28.708-64,64-64
				s64,28.708,64,64V128H192V85.333z M106.667,280.611v36.112C100.408,312.999,96,306.461,96,298.667
				C96,290.872,100.408,284.335,106.667,280.611z M117.333,384C105.563,384,96,374.427,96,362.667
				c0-8.661,5.232-16.066,12.667-19.405c2.224,14.119,6.4,27.56,12.298,40.081C119.75,383.582,118.428,384,117.333,384z
				 M149.333,437.333C137.563,437.333,128,427.76,128,416c0-4.538,1.793-8.641,4.44-12.254
				c7.711,11.339,16.969,21.526,27.421,30.346C156.642,435.992,153.154,437.333,149.333,437.333z M202.667,469.333
				c-11.315,0-20.372-8.918-21.073-20.049c10.895,6.296,22.638,11.21,35.035,14.608
				C212.684,467.358,207.763,469.333,202.667,469.333z M277.125,470.792c-0.75,11.146-10.021,19.875-21.125,19.875
				s-20.375-8.729-21.125-19.875c-0.081-1.221-0.737-2.228-1.203-3.315c7.305,1.103,14.721,1.857,22.328,1.857
				s15.023-0.754,22.328-1.857C277.862,468.564,277.206,469.57,277.125,470.792z M309.333,469.333
				c-5.096,0-10.017-1.974-13.962-5.44c12.397-3.398,24.142-8.314,35.035-14.609C329.706,460.417,320.648,469.333,309.333,469.333z
				 M362.667,437.333c-3.82,0-7.309-1.341-10.527-3.241c10.452-8.82,19.711-19.008,27.421-30.345
				c2.646,3.615,4.44,7.715,4.44,12.253C384,427.76,374.438,437.333,362.667,437.333z M384,320c0,70.583-57.417,128-128,128
				s-128-57.417-128-128v-65.182c40.147-8.303,60.621-62.654,63.585-105.484h128.831c2.964,42.831,23.438,97.181,63.585,105.484V320
				z M394.667,384c-1.095,0-2.417-0.418-3.632-0.658c5.898-12.521,10.076-25.962,12.299-40.081
				C410.768,346.6,416,354.007,416,362.667C416,374.427,406.438,384,394.667,384z M416,298.667c0,7.794-4.408,14.332-10.667,18.056
				v-36.112C411.592,284.335,416,290.872,416,298.667z"/>
		</g>
	</g>
</g>
<g>
</g>
<g>
</g>
<g>
</g>
<g>
</g>
<g>
</g>
<g>
</g>
<g>
</g>
<g>
</g>
<g>
</g>
<g>
</g>
<g>
</g>
<g>
</g>
<g>
</g>
<g>
</g>
<g>
</g>
</svg>
