<?xml version="1.0" encoding="iso-8859-1"?>
<!-- Generator: Adobe Illustrator 19.0.0, SVG Export Plug-In . SVG Version: 6.00 Build 0)  -->
<svg version="1.1" id="Capa_1" xmlns="http://www.w3.org/2000/svg" xmlns:xlink="http://www.w3.org/1999/xlink" x="0px" y="0px"
	 viewBox="0 0 512 512" style="enable-background:new 0 0 512 512;" xml:space="preserve">
<g>
	<g>
		<path d="M448,352V106.667C448,83.135,428.854,64,405.333,64c-7.771,0-15.063,2.083-21.333,5.729V64
			c0-23.531-19.146-42.667-42.667-42.667c-15.665,0-29.691,8.682-37.111,21.896c-1.837-0.242-3.654-0.563-5.556-0.563
			c-7.771,0-15.063,2.083-21.333,5.729v-5.729C277.333,19.135,258.188,0,234.667,0C211.146,0,192,19.135,192,42.667v5.729
			c-6.271-3.646-13.563-5.729-21.333-5.729C147.146,42.667,128,61.802,128,85.333v5.729c-6.271-3.646-13.563-5.729-21.333-5.729
			C83.146,85.333,64,104.469,64,128v245.333c0,26.708,14.229,51.094,36.896,64.375l-15.25,61.042
			c-0.792,3.188-0.083,6.563,1.938,9.146C89.604,510.49,92.708,512,96,512h213.333c3.292,0,6.396-1.51,8.417-4.104
			c2.021-2.583,2.729-5.958,1.938-9.146l-2.02-8.083H416c3.292,0,6.396-1.51,8.417-4.104c2.021-2.583,2.729-5.958,1.938-9.146
			l-15.25-61.042C433.771,403.094,448,378.708,448,352z M281.667,434.646l14,56.021h-186l14-56.021
			c1.271-5.063-1.333-10.302-6.125-12.375c-19.563-8.458-32.208-27.667-32.208-48.938V128c0-11.76,9.563-21.333,21.333-21.333
			C118.438,106.667,128,116.24,128,128v117.333c0,5.896,4.771,10.667,10.667,10.667c5.896,0,10.667-4.771,10.667-10.667V128V85.333
			c0-11.76,9.563-21.333,21.333-21.333C182.438,64,192,73.573,192,85.333v160c0,5.896,4.771,10.667,10.667,10.667
			c5.896,0,10.667-4.771,10.667-10.667v-160V42.667c0-11.76,9.563-21.333,21.333-21.333c11.771,0,21.333,9.573,21.333,21.333v42.667
			v160c0,5.896,4.771,10.667,10.667,10.667c5.896,0,10.667-4.771,10.667-10.667v-160c0-11.76,9.563-21.333,21.333-21.333
			C310.438,64,320,73.573,320,85.333v288c0,21.271-12.646,40.479-32.208,48.938C283,424.344,280.396,429.583,281.667,434.646z
			 M394.458,400.938c-4.792,2.073-7.396,7.313-6.125,12.375l14,56.021h-89.995l-7.901-31.625
			c19.466-11.406,32.639-31.023,35.991-53.247l58.134-87.211c10.625-15.917,8.5-37.281-5.021-50.792
			c-8.563-8.563-20.5-12.76-32.438-11.594c-7.314,0.728-14.021,3.591-19.771,7.829V85.333c0-13.889-6.772-26.128-17.076-33.923
			c3.941-5.318,10.163-8.743,17.076-8.743c11.771,0,21.333,9.573,21.333,21.333v32v10.667v96c0,5.896,4.771,10.667,10.667,10.667
			c5.896,0,10.667-4.771,10.667-10.667v-96c0-11.76,9.563-21.333,21.333-21.333c11.771,0,21.333,9.573,21.333,21.333V352
			C426.667,373.271,414.021,392.479,394.458,400.938z M341.333,344.642v-68.206l8-12.009c3.146-4.729,8.208-7.771,13.875-8.333
			c5.625-0.604,11.208,1.427,15.25,5.448c6.354,6.354,7.354,16.385,2.354,23.875L341.333,344.642z"/>
	</g>
</g>
<g>
</g>
<g>
</g>
<g>
</g>
<g>
</g>
<g>
</g>
<g>
</g>
<g>
</g>
<g>
</g>
<g>
</g>
<g>
</g>
<g>
</g>
<g>
</g>
<g>
</g>
<g>
</g>
<g>
</g>
</svg>
