<?xml version="1.0" encoding="iso-8859-1"?>
<!-- Generator: Adobe Illustrator 19.0.0, SVG Export Plug-In . SVG Version: 6.00 Build 0)  -->
<svg version="1.1" id="Capa_1" xmlns="http://www.w3.org/2000/svg" xmlns:xlink="http://www.w3.org/1999/xlink" x="0px" y="0px"
	 viewBox="0 0 469.333 469.333" style="enable-background:new 0 0 469.333 469.333;" xml:space="preserve">
<g>
	<g>
		<g>
			<path d="M173.458,236.417c-51.063,8.938-88.125,53.062-88.125,104.917C85.333,347.229,90.104,352,96,352
				c5.896,0,10.667-4.771,10.667-10.667c0-41.469,29.635-76.75,70.479-83.896c5.802-1.021,9.677-6.542,8.667-12.354
				C184.802,239.292,179.333,235.437,173.458,236.417z"/>
			<circle cx="192" cy="117.333" r="10.667"/>
			<path d="M394.667,0c-13.026,0-24.215,7.849-29.203,19.043l-74.88-18.72c-3.167-0.802-6.552-0.083-9.146,1.938
				s-4.104,5.125-4.104,8.406V64c0,4.896,3.333,9.156,8.083,10.344l1.271,0.323l-1.271,0.323c-4.75,1.188-8.083,5.448-8.083,10.344
				v85.333c0,4.042,2.281,7.729,5.896,9.542l2.25,1.125l-2.25,1.125c-3.615,1.813-5.896,5.5-5.896,9.542v27.624
				c-16.022-11.393-33.776-19.561-52.615-23.832l8.542-66.542c0.938-7.5,1.406-15.031,1.406-22.583
				C234.667,83.135,215.531,64,192,64s-42.667,19.135-42.667,42.667c0,7.552,0.469,15.083,1.406,22.573l8.333,66.573
				C91.031,210.99,42.667,270.625,42.667,341.333v117.333c0,5.896,4.771,10.667,10.667,10.667h277.333
				c5.896,0,10.667-4.771,10.667-10.667V341.333c0-25.246-6.958-49.805-19.553-72.122l40.887-10.221V352c0,17.646,14.354,32,32,32
				c17.646,0,32-14.354,32-32V32C426.667,14.354,412.313,0,394.667,0z M320,448H64v-21.333h256V448z M320,405.333H64v-64
				c0-63.583,45.635-116.729,108.521-126.354c5.708-0.875,9.688-6.135,8.969-11.865l-9.583-76.531
				c-0.833-6.604-1.24-13.26-1.24-19.917c0-11.76,9.573-21.333,21.333-21.333c11.76,0,21.333,9.573,21.333,21.333
				c0,6.656-0.406,13.313-1.24,19.896l-9.823,76.49c-0.74,5.75,3.25,11.031,8.99,11.896c24.413,3.701,47.09,14.928,66.073,32.142
				v19.577c0,3.281,1.51,6.385,4.104,8.406c1.896,1.479,4.208,2.26,6.563,2.26c0.865,0,1.729-0.104,2.583-0.323l9.637-2.409
				C312.975,295.029,320,317.87,320,341.333V405.333z M362.667,237.009l-64,15.991v-54.406l15.438-7.719
				c3.615-1.813,5.896-5.5,5.896-9.542c0-4.042-2.281-7.729-5.896-9.542l-15.438-7.719V93.667l34.583-8.656
				c4.75-1.188,8.083-5.448,8.083-10.344S338,65.51,333.25,64.323l-34.583-8.656V24.333l64,15.991V237.009z M405.333,352
				c0,5.885-4.781,10.667-10.667,10.667c-5.885,0-10.667-4.781-10.667-10.667V32c0-5.885,4.781-10.667,10.667-10.667
				c5.885,0,10.667,4.781,10.667,10.667V352z"/>
		</g>
	</g>
</g>
<g>
</g>
<g>
</g>
<g>
</g>
<g>
</g>
<g>
</g>
<g>
</g>
<g>
</g>
<g>
</g>
<g>
</g>
<g>
</g>
<g>
</g>
<g>
</g>
<g>
</g>
<g>
</g>
<g>
</g>
</svg>
