<?xml version="1.0" encoding="iso-8859-1"?>
<!-- Generator: Adobe Illustrator 19.0.0, SVG Export Plug-In . SVG Version: 6.00 Build 0)  -->
<svg version="1.1" id="Capa_1" xmlns="http://www.w3.org/2000/svg" xmlns:xlink="http://www.w3.org/1999/xlink" x="0px" y="0px"
	 viewBox="0 0 512.005 512.005" style="enable-background:new 0 0 512.005 512.005;" xml:space="preserve">
<g>
	<g>
		<path d="M490.672,152.888v-24.885h10.667c5.896,0,10.667-4.771,10.667-10.667c0-5.896-4.771-10.667-10.667-10.667h-32v-32
			c0-5.896-4.771-10.667-10.667-10.667s-10.667,4.771-10.667,10.667v32h-85.333v-32c0-5.896-4.771-10.667-10.667-10.667
			c-5.896,0-10.667,4.771-10.667,10.667v32H234.672v-32c0-5.896-4.771-10.667-10.667-10.667c-5.896,0-10.667,4.771-10.667,10.667v32
			h-128v-32c0-5.896-4.771-10.667-10.667-10.667c-5.896,0-10.667,4.771-10.667,10.667v32H10.672
			c-5.896,0-10.667,4.771-10.667,10.667c0,5.896,4.771,10.667,10.667,10.667h19.814L6.057,139.721
			c-5.073,2.427-7.385,8.385-5.281,13.604l29.198,72.344c2.125,5.271,8,7.969,13.385,6.094l10.604-3.667
			c1.167,13.802,3.781,25.063,6,34.583c2.167,9.354,4.042,17.438,4.042,25.323c0,16.25-15.25,96.406-21.125,125.917
			c-0.823,4.135,0.865,8.375,4.323,10.802c1.344,0.958,33.854,23.281,102.135,23.281s100.792-22.323,102.135-23.281
			c3.458-2.427,5.146-6.667,4.323-10.802c-5.875-29.51-21.125-109.667-21.125-125.917c0-7.885,1.875-15.969,4.042-25.323
			c2.219-9.521,4.833-20.781,6-34.583l10.604,3.667c5.396,1.875,11.26-0.823,13.385-6.094l29.198-72.344
			c2.104-5.219-0.208-11.177-5.281-13.604l-24.43-11.719h51.815v24.583c0,24.427-5.313,39.885-18.333,53.333
			c-1.927,1.99-3,4.646-3,7.417v202.667c0,4.042,2.281,7.729,5.896,9.542c1.833,0.917,45.552,22.458,100.771,22.458
			s98.938-21.542,100.771-22.458c3.615-1.813,5.896-5.5,5.896-9.542V213.336c0-2.771-1.073-5.427-3-7.417
			C493.786,190.2,490.672,173.357,490.672,152.888z M191.763,128.003c-10.441,21.884-23.849,32-42.424,32s-31.983-10.116-42.425-32
			H191.763z M274.37,154.628l-21.656,53.656l-14.552-5.031c-3.271-1.125-6.865-0.625-9.677,1.396c-2.813,2-4.479,5.24-4.479,8.688
			c0,18.375-3.219,32.271-6.073,44.521c-2.365,10.198-4.594,19.813-4.594,30.146c0,18.708,14.917,96.365,20.042,122.49
			c-11.24,5.531-38.771,16.177-84.042,16.177c-45.302,0-72.833-10.667-84.042-16.177c5.125-26.115,20.042-103.781,20.042-122.49
			c0-10.333-2.229-19.948-4.594-30.146c-2.854-12.25-6.073-26.146-6.073-44.521c0-3.448-1.667-6.688-4.479-8.688
			c-2.823-2-6.427-2.521-9.677-1.396l-14.552,5.031l-21.656-53.656l47.104-22.604c3.771-1.99,7.917-3.271,12.167-3.781
			c7.323,18.844,24.74,53.094,65.76,53.094s58.438-34.24,65.76-53.083c4.271,0.51,8.49,1.823,12.531,3.948L274.37,154.628z
			 M383.37,128.003h43.926c0.134,11.618-1.406,28.697-8.988,37.26c-6.5,7.375-19.375,7.406-25.927,0.01
			C384.738,156.667,383.198,139.732,383.37,128.003z M490.672,409.086c-13.083,5.469-46.438,17.583-85.333,17.583
			c-38.896,0-72.25-12.115-85.333-17.583V217.503c18.719-21.302,21.333-44.677,21.333-64.917v-24.583h20.667
			c-0.198,14.094,1.688,37.042,14.385,51.396c14.604,16.5,43.292,16.5,57.896,0c12.698-14.354,14.583-37.302,14.385-51.396h20.667
			v24.885c0,20.104,2.615,43.333,21.333,64.615V409.086z"/>
	</g>
</g>
<g>
</g>
<g>
</g>
<g>
</g>
<g>
</g>
<g>
</g>
<g>
</g>
<g>
</g>
<g>
</g>
<g>
</g>
<g>
</g>
<g>
</g>
<g>
</g>
<g>
</g>
<g>
</g>
<g>
</g>
</svg>
