<?xml version="1.0" encoding="iso-8859-1"?>
<!-- Generator: Adobe Illustrator 19.0.0, SVG Export Plug-In . SVG Version: 6.00 Build 0)  -->
<svg version="1.1" id="Capa_1" xmlns="http://www.w3.org/2000/svg" xmlns:xlink="http://www.w3.org/1999/xlink" x="0px" y="0px"
	 viewBox="0 0 512 512" style="enable-background:new 0 0 512 512;" xml:space="preserve">
<g>
	<g>
		<g>
			<path d="M415.995,288c-5.896,0-10.667,4.771-10.667,10.667c0,58.813-47.854,106.667-106.667,106.667
				c-5.896,0-10.667,4.771-10.667,10.667c0,5.896,4.771,10.667,10.667,10.667c70.583,0,128-57.417,128-128
				C426.661,292.771,421.891,288,415.995,288z"/>
			<path d="M206.974,213.938c-4-1.677-8.375-0.958-11.396,2.094c-0.104,0.083-10.458,7.969-46.25,7.969
				c-35.021,0-45.688-7.552-45.792-7.552v0.01c-3.063-3.042-7.646-3.979-11.625-2.313c-3.979,1.646-6.583,5.542-6.583,9.854v202.667
				c0,2.833,1.125,5.542,3.125,7.542C90.766,436.51,104.516,448,149.328,448s58.563-11.49,60.875-13.792
				c2-2,3.125-4.708,3.125-7.542V224C213.328,219.688,210.953,215.583,206.974,213.938z M191.995,420.594
				c-5.5,2.354-18.083,6.073-42.667,6.073c-24.813,0-37.396-3.792-42.667-6V240.458c9.354,2.667,23.042,4.875,42.667,4.875
				s33.313-2.208,42.667-4.875V420.594z"/>
			<path d="M351.932,64c5.375,0.063,32.063,1.906,32.063,32c0,0.042,0,0.052,0,0.073c0,0.042,0,0.083,0,0.125c0,0.01,0,0.01,0,0.01
				c0,0.021,0,0.031,0,0.031c0,0.01,0,0.021,0,0.031c0,0,0,0.021,0,0.042c0.167,5.74,4.875,10.354,10.667,10.354
				c5.875,0,10.646-4.75,10.667-10.615c0.063-5.365,1.896-32.052,32-32.052c0.021,0,0.042,0,0.063,0c0.042,0,0.104,0,0.146,0h0.021
				c0,0,0,0,0.021,0h0.021c0.021,0,0.021,0,0.042,0c5.75-0.167,10.354-4.875,10.354-10.667c0-5.875-4.75-10.635-10.604-10.667
				c-5.375-0.063-32.063-1.906-32.063-32c0-0.042,0-0.052,0-0.073c0-0.042,0-0.083,0-0.125c0-0.01,0-0.01,0-0.01
				c0-0.021,0-0.031,0-0.031c0-0.01,0-0.021,0-0.031c0,0,0-0.021,0-0.042C405.161,4.615,400.453,0,394.661,0
				c-5.875,0-10.646,4.75-10.667,10.615c-0.063,5.365-1.896,32.052-32,32.052c-0.021,0-0.042,0-0.063,0c-0.042,0-0.104,0-0.146,0
				h-0.021c0,0,0,0-0.021,0h-0.021c-0.021,0-0.021,0-0.042,0c-5.75,0.167-10.354,4.875-10.354,10.667
				C341.328,59.208,346.078,63.969,351.932,64z M394.495,44.24c2.75,3.51,5.896,6.458,9.25,8.917c-3.5,2.75-6.458,5.906-8.917,9.271
				c-2.75-3.51-5.896-6.458-9.25-8.917C389.078,50.76,392.036,47.604,394.495,44.24z"/>
			<path d="M298.661,106.667c-30.694,0-61.021,7.579-89.112,22.181c-2.279-0.283-4.565-0.517-6.888-0.602V96
				c0-5.896-4.771-10.667-10.667-10.667h-10.667v-18.75c0-11.229-4.563-22.229-12.5-30.167L156.87,24.458
				c-4.167-4.167-10.917-4.167-15.083,0l-11.958,11.958c-7.938,7.938-12.5,18.938-12.5,30.167v18.75h-10.667
				c-5.896,0-10.667,4.771-10.667,10.667v32.246c-36.096,1.303-67.409,26.97-73.458,60.962
				c-3.625,20.333,1.042,40.625,13.125,57.135c4.583,6.26,7,13.115,7,19.844v203.146c0,23.531,19.146,42.667,42.667,42.667h128
				c17.956,0,33.289-11.186,39.574-26.931c14.914,3.65,30.277,5.598,45.759,5.598c105.875,0,192-86.135,192-192
				S404.536,106.667,298.661,106.667z M138.661,66.583c0-5.615,2.271-11.115,6.25-15.083l4.417-4.417l4.417,4.417
				c3.979,3.969,6.25,9.469,6.25,15.083v18.75h-21.333V66.583z M117.328,106.667h64V128h-64V106.667z M245.786,233.74
				c-7.271,9.938-11.125,21.167-11.125,32.448v203.146c0,11.76-9.563,21.333-21.333,21.333h-128
				c-11.771,0-21.333-9.573-21.333-21.333V266.188c0-11.281-3.854-22.51-11.125-32.448c-8.604-11.76-11.917-26.25-9.333-40.792
				c4.417-24.865,28.188-43.615,55.271-43.615h101.042c27.083,0,50.854,18.75,55.271,43.615c0,0,0,0,0,0.01
				C257.703,207.49,254.391,221.979,245.786,233.74z M298.661,469.333c-14.271,0-28.438-1.76-42.146-5.24l-0.521,2.051V266.188
				c0-6.729,2.417-13.583,7-19.844c12.083-16.51,16.75-36.802,13.125-57.125c-3.823-21.487-17.76-39.661-36.578-50.504
				c18.845-6.943,38.887-10.715,59.12-10.715c94.104,0,170.667,76.563,170.667,170.667S392.766,469.333,298.661,469.333z"/>
		</g>
	</g>
</g>
<g>
</g>
<g>
</g>
<g>
</g>
<g>
</g>
<g>
</g>
<g>
</g>
<g>
</g>
<g>
</g>
<g>
</g>
<g>
</g>
<g>
</g>
<g>
</g>
<g>
</g>
<g>
</g>
<g>
</g>
</svg>
