<?xml version="1.0" encoding="iso-8859-1"?>
<!-- Generator: Adobe Illustrator 19.0.0, SVG Export Plug-In . SVG Version: 6.00 Build 0)  -->
<svg version="1.1" id="Capa_1" xmlns="http://www.w3.org/2000/svg" xmlns:xlink="http://www.w3.org/1999/xlink" x="0px" y="0px"
	 viewBox="0 0 512 512" style="enable-background:new 0 0 512 512;" xml:space="preserve">
<g>
	<g>
		<path d="M437.333,298.667H320v-160c0-5.896-4.771-10.667-10.667-10.667V32c0-18.24-22.927-32-53.333-32s-53.333,13.76-53.333,32
			v96c-5.896,0-10.667,4.771-10.667,10.667v160H74.667C33.5,298.667,0,332.167,0,373.333V448c0,19.316,12.975,35.48,30.611,40.72
			l5.202,15.926C37.24,509.031,41.333,512,45.948,512c4.615,0,8.698-2.958,10.135-7.344l3.852-11.755l3.857,11.755
			c1.438,4.385,5.531,7.344,10.135,7.344c4.615,0,8.698-2.969,10.135-7.344l3.839-11.714l3.828,11.703
			c1.427,4.385,5.521,7.354,10.135,7.354c4.615,0,8.708-2.969,10.135-7.354l3.823-11.686l3.823,11.686
			c1.427,4.385,5.521,7.354,10.135,7.354s8.708-2.969,10.135-7.354l3.833-11.719l3.844,11.729c1.438,4.375,5.521,7.344,10.135,7.344
			c4.604,0,8.698-2.958,10.135-7.333l3.867-11.767l3.852,11.756c1.438,4.385,5.521,7.344,10.135,7.344h0.01
			c4.615,0,8.698-2.969,10.135-7.354l3.759-11.527l3.751,11.517c1.438,4.396,5.531,7.365,10.146,7.365
			c4.615,0,8.708-2.969,10.146-7.365l3.75-11.514l3.75,11.514c1.438,4.396,5.521,7.365,10.146,7.365
			c4.615,0,8.708-2.969,10.135-7.354l3.818-11.688l3.839,11.698c1.438,4.385,5.521,7.344,10.135,7.344
			c4.604,0,8.688-2.958,10.135-7.333l3.885-11.806l3.865,11.796c1.438,4.385,5.521,7.344,10.135,7.344
			c4.615,0,8.698-2.958,10.135-7.344l3.844-11.732l3.844,11.732c1.438,4.375,5.521,7.344,10.125,7.344h0.01
			c4.604,0,8.688-2.958,10.135-7.323l3.914-11.875l3.898,11.865c1.438,4.375,5.521,7.333,10.135,7.333
			c4.604,0,8.688-2.958,10.135-7.333l3.914-11.895l3.93,11.905c1.438,4.375,5.521,7.323,10.125,7.323
			c4.604,0,8.698-2.958,10.135-7.333l3.906-11.87l3.906,11.87c1.448,4.375,5.531,7.333,10.135,7.333
			c4.615,0,8.698-2.958,10.135-7.333l3.911-11.902l3.932,11.913c1.438,4.365,5.521,7.323,10.125,7.323
			c4.604,0,8.688-2.948,10.125-7.323l3.994-12.079l4.017,12.1c1.448,4.354,5.531,7.302,10.125,7.302s8.677-2.948,10.125-7.313
			l5.281-15.927C498.962,483.563,512,467.363,512,448v-74.667C512,332.167,478.5,298.667,437.333,298.667z M256,21.333
			c20.646,0,32,8.01,32,10.667s-11.354,10.667-32,10.667S224,34.656,224,32S235.354,21.333,256,21.333z M224,57.819
			C232.815,61.684,243.742,64,256,64s23.185-2.316,32-6.181v101.79c-7.826,6.719-19.195,11.057-32,11.057s-24.174-4.339-32-11.057
			V57.819z M213.333,178.385C224.667,186.844,239.625,192,256,192s31.333-5.156,42.667-13.615V352c0,17.646-19.135,32-42.667,32
			s-42.667-14.354-42.667-32V178.385z M490.667,448c0,11.76-9.573,21.333-21.333,21.333H42.667c-11.76,0-21.333-9.573-21.333-21.333
			v-74.667C21.333,343.927,45.26,320,74.667,320H192v32c0,29.406,28.708,53.333,64,53.333s64-23.927,64-53.333v-32h117.333
			c29.406,0,53.333,23.927,53.333,53.333V448z"/>
	</g>
</g>
<g>
</g>
<g>
</g>
<g>
</g>
<g>
</g>
<g>
</g>
<g>
</g>
<g>
</g>
<g>
</g>
<g>
</g>
<g>
</g>
<g>
</g>
<g>
</g>
<g>
</g>
<g>
</g>
<g>
</g>
</svg>
