<?xml version="1.0" encoding="iso-8859-1"?>
<!-- Generator: Adobe Illustrator 19.0.0, SVG Export Plug-In . SVG Version: 6.00 Build 0)  -->
<svg version="1.1" id="Capa_1" xmlns="http://www.w3.org/2000/svg" xmlns:xlink="http://www.w3.org/1999/xlink" x="0px" y="0px"
	 viewBox="0 0 469.333 469.333" style="enable-background:new 0 0 469.333 469.333;" xml:space="preserve">
<g>
	<g>
		<g>
			<path d="M202.755,341.333c-17.646,0-32,14.354-32,32s14.354,32,32,32c17.646,0,32-14.354,32-32S220.4,341.333,202.755,341.333z
				 M202.755,384c-5.885,0-10.667-4.781-10.667-10.667s4.781-10.667,10.667-10.667c5.885,0,10.667,4.781,10.667,10.667
				S208.64,384,202.755,384z"/>
			<path d="M266.755,128c-17.646,0-32,14.354-32,32c0,17.646,14.354,32,32,32c17.646,0,32-14.354,32-32
				C298.755,142.354,284.4,128,266.755,128z M266.755,170.667c-5.885,0-10.667-4.781-10.667-10.667
				c0-5.885,4.781-10.667,10.667-10.667c5.885,0,10.667,4.781,10.667,10.667C277.421,165.885,272.64,170.667,266.755,170.667z"/>
			<path d="M128.088,245.333c0-17.646-14.354-32-32-32c-17.646,0-32,14.354-32,32c0,17.646,14.354,32,32,32
				C113.734,277.333,128.088,262.979,128.088,245.333z M96.088,256c-5.885,0-10.667-4.781-10.667-10.667
				c0-5.885,4.781-10.667,10.667-10.667c5.885,0,10.667,4.781,10.667,10.667C106.755,251.219,101.973,256,96.088,256z"/>
			<path d="M362.755,149.333c-23.531,0-42.667,19.135-42.667,42.667s19.135,42.667,42.667,42.667s42.667-19.135,42.667-42.667
				S386.286,149.333,362.755,149.333z M362.755,213.333c-11.76,0-21.333-9.573-21.333-21.333c0-11.76,9.573-21.333,21.333-21.333
				c11.76,0,21.333,9.573,21.333,21.333C384.088,203.76,374.515,213.333,362.755,213.333z"/>
			<path d="M128.088,341.333c-11.76,0-21.333,9.573-21.333,21.333c0,11.76,9.573,21.333,21.333,21.333
				c11.76,0,21.333-9.573,21.333-21.333C149.421,350.906,139.848,341.333,128.088,341.333z"/>
			<path d="M298.755,64c-11.76,0-21.333,9.573-21.333,21.333c0,11.76,9.573,21.333,21.333,21.333
				c11.76,0,21.333-9.573,21.333-21.333C320.088,73.573,310.515,64,298.755,64z"/>
			<path d="M412.557,56.854C375.359,19.656,332.453,0,288.453,0c-0.125,0-0.26,0-0.396,0c-41.427,0.115-76.323,13.156-100.896,37.74
				c-6.042,6.042-11.469,13.021-17.094,21.99c-1.969,3.125-2.177,7.042-0.552,10.354c0.844,1.729,1.24,3.188,1.24,4.583
				c0,5.573-4.458,10.167-10.146,10.458c-3.406,0.177-6.531,1.979-8.385,4.844c-20.583,31.635-48.979,57.167-82.104,73.813
				c-11.99,6.01-22.854,13.854-32.292,23.292c-41.667,41.667-49.604,108.396-20.219,170.01c1.958,4.104,6.188,6.563,10.854,6
				c0.073-0.01,3.552-0.406,3.625-0.417c17.646,0,32,14.354,32,32c0,4.323-0.844,8.521-2.51,12.469
				c-1.76,4.167-0.698,8.99,2.646,12.042c35.344,32.125,80.74,49.938,127.812,50.156c0.208,0,0.406,0,0.615,0
				c33.99,0,65-13.042,89.698-37.74c9.438-9.438,17.281-20.302,23.292-32.281c13.073-26.031,32.24-49.792,55.427-68.719
				c3.396-2.771,4.75-7.344,3.406-11.521c-1.177-3.656-1.719-6.75-1.719-9.74c0-17.646,14.354-32,32-32
				c9.313,0,16.177,4.083,20.292,7.51c3.875,3.229,10.521,2.385,14.5-0.719c0.323-0.26,1.844-1.573,2.135-1.865
				C488.546,225.385,479.973,124.271,412.557,56.854z M420.609,262.833c-7.906-4.49-16.698-6.833-25.854-6.833
				c-29.406,0-53.333,23.927-53.333,53.333c0,2.99,0.302,6.021,0.896,9.156c-23.135,20.042-42.323,44.552-55.74,71.25
				c-4.99,9.938-11.49,18.948-19.313,26.771C246.65,437.115,220.859,448,192.64,448c-0.167,0-0.333,0-0.5,0
				c-39.531-0.177-77.75-14.365-108.375-40.083c1.104-4.302,1.656-8.74,1.656-13.25c0-28.802-22.938-52.333-51.51-53.302
				c-21.927-51.438-14.76-105.448,19-139.208c7.823-7.823,16.833-14.323,26.781-19.313c35.083-17.635,65.333-44.271,87.729-77.219
				c14.219-3.323,24.667-15.969,24.667-30.958c0-2.688-0.365-5.333-1.104-7.979c3.729-5.49,7.375-9.969,11.26-13.865
				c20.51-20.51,50.198-31.396,85.875-31.49c0.115,0,0.219,0,0.333,0c38.219,0,75.906,17.49,109.021,50.604
				C454.775,129.24,464.578,213.312,420.609,262.833z"/>
		</g>
	</g>
</g>
<g>
</g>
<g>
</g>
<g>
</g>
<g>
</g>
<g>
</g>
<g>
</g>
<g>
</g>
<g>
</g>
<g>
</g>
<g>
</g>
<g>
</g>
<g>
</g>
<g>
</g>
<g>
</g>
<g>
</g>
</svg>
