<?xml version="1.0" encoding="iso-8859-1"?>
<!-- Generator: Adobe Illustrator 19.0.0, SVG Export Plug-In . SVG Version: 6.00 Build 0)  -->
<svg version="1.1" id="Capa_1" xmlns="http://www.w3.org/2000/svg" xmlns:xlink="http://www.w3.org/1999/xlink" x="0px" y="0px"
	 viewBox="0 0 512 512" style="enable-background:new 0 0 512 512;" xml:space="preserve">
<g>
	<g>
		<path d="M498.542,441.917L234.72,207.421c37.139-13.267,63.947-48.444,63.947-90.087c0-52.938-43.063-96-96-96
			c-13.478,0-26.284,2.848-37.934,7.883C147.279,11.255,122.966,0,96,0C43.063,0,0,43.063,0,96
			c0,26.966,11.255,51.279,29.216,68.733c-5.035,11.65-7.883,24.456-7.883,37.934c0,52.938,43.063,96,96,96
			c41.651,0,76.833-26.818,90.094-63.969l234.49,263.844c7.604,8.552,18.542,13.458,29.979,13.458C494,512,512,494,512,471.885
			C512,460.448,507.104,449.531,498.542,441.917z M172.737,153.086c9.322,10.406,15.738,23.323,18.063,37.714
			c-14.391-2.324-27.307-8.741-37.714-18.063C160.563,167.16,167.16,160.563,172.737,153.086z M139.392,156.513
			c-5.098-8.202-8.592-17.411-10.191-27.313c9.901,1.599,19.111,5.094,27.313,10.191
			C151.766,145.992,145.992,151.766,139.392,156.513z M159.275,56.82c7.1,11.423,11.392,24.772,11.392,39.18
			c0,8.622-1.763,16.78-4.465,24.492c-11.174-6.672-23.749-10.995-37.242-12.651C131.663,86.865,142.874,68.62,159.275,56.82z
			 M21.333,96c0-41.167,33.5-74.667,74.667-74.667c19.099,0,36.362,7.422,49.581,19.263c-21.004,15.671-35.133,39.615-37.935,67.049
			c-27.435,2.802-51.379,16.931-67.049,37.935C28.755,132.362,21.333,115.099,21.333,96z M120.492,166.202
			c-7.712,2.702-15.87,4.465-24.492,4.465c-14.408,0-27.757-4.292-39.18-11.392c11.799-16.401,30.044-27.612,51.021-30.315
			C109.497,142.453,113.82,155.027,120.492,166.202z M117.333,277.333c-41.167,0-74.667-33.5-74.667-74.667
			c0-8.622,1.763-16.78,4.465-24.492C61.499,186.753,78.083,192,96,192c13.478,0,26.284-2.848,37.934-7.883
			c14.878,15.309,34.849,25.311,57.107,28.042C186.316,248.813,155.25,277.333,117.333,277.333z M184.117,133.934
			C189.152,122.284,192,109.478,192,96c0-17.917-5.247-34.501-13.826-48.868c7.712-2.702,15.87-4.465,24.492-4.465
			c41.167,0,74.667,33.5,74.667,74.667c0,37.917-28.521,68.983-65.174,73.707C209.428,168.783,199.426,148.811,184.117,133.934z
			 M471.896,490.667c-5.354,0-10.479-2.302-14.042-6.302L246,245.979l238.375,211.875c4,3.563,6.292,8.677,6.292,14.042
			C490.667,482.25,482.25,490.667,471.896,490.667z"/>
	</g>
</g>
<g>
</g>
<g>
</g>
<g>
</g>
<g>
</g>
<g>
</g>
<g>
</g>
<g>
</g>
<g>
</g>
<g>
</g>
<g>
</g>
<g>
</g>
<g>
</g>
<g>
</g>
<g>
</g>
<g>
</g>
</svg>
