<?xml version="1.0" encoding="iso-8859-1"?>
<!-- Generator: Adobe Illustrator 19.0.0, SVG Export Plug-In . SVG Version: 6.00 Build 0)  -->
<svg version="1.1" id="Capa_1" xmlns="http://www.w3.org/2000/svg" xmlns:xlink="http://www.w3.org/1999/xlink" x="0px" y="0px"
	 viewBox="0 0 512 512" style="enable-background:new 0 0 512 512;" xml:space="preserve">
<g>
	<g>
		<path d="M384,394.667V352c0-5.156-3.688-9.573-8.76-10.49l-55.758-10.138c-1.406-16.052-9.135-30.168-20.815-39.98v-46.059
			c0-5.896-4.771-10.667-10.667-10.667V32c0-17.646-14.354-32-32-32s-32,14.354-32,32v202.667c-5.896,0-10.667,4.771-10.667,10.667
			v46.059c-11.68,9.813-19.409,23.928-20.815,39.98L136.76,341.51c-5.073,0.917-8.76,5.333-8.76,10.49v42.667
			c0,5.896,4.771,10.667,10.667,10.667h28.771l-34.688,23.125c-2.656,1.771-4.385,4.646-4.698,7.823
			c-0.313,3.177,0.813,6.333,3.073,8.594l42.667,42.667c4.167,4.167,10.917,4.167,15.083,0l28.01-28.01l7.26,43.552
			C225,508.229,229.448,512,234.667,512h42.667c5.219,0,9.667-3.771,10.521-8.917l7.26-43.552l28.01,28.01
			c4.167,4.167,10.917,4.167,15.083,0l42.667-42.667c2.26-2.26,3.385-5.417,3.073-8.594c-0.313-3.177-2.042-6.052-4.698-7.823
			l-34.688-23.125h28.771C379.229,405.333,384,400.563,384,394.667z M245.333,32c0-5.885,4.781-10.667,10.667-10.667
			S266.667,26.115,266.667,32v202.667h-21.333V32z M234.667,256h42.667v23.964c-5.27-1.543-10.729-2.63-16.49-2.63h-9.688
			c-5.76,0-11.22,1.087-16.49,2.63V256z M251.156,298.667h9.688c17.691,0,32.471,12.259,36.582,28.695l-39.52-7.185
			c-1.25-0.229-2.563-0.229-3.813,0l-39.52,7.185C218.685,310.926,233.465,298.667,251.156,298.667z M362.667,384h-53.333
			c-4.698,0-8.844,3.073-10.208,7.573s0.385,9.365,4.292,11.969l53.177,35.448l-25.927,25.927l-35.125-35.125
			c-2.823-2.823-6.969-3.833-10.802-2.615c-3.802,1.219-6.604,4.458-7.26,8.406l-9.177,55.083h-24.604l-9.177-55.083
			c-0.656-3.948-3.458-7.188-7.26-8.406c-3.792-1.219-7.969-0.208-10.802,2.615l-35.125,35.125l-25.927-25.927l53.177-35.448
			c3.906-2.604,5.656-7.469,4.292-11.969S207.365,384,202.667,384h-53.333v-23.094L256,341.51l106.667,19.396V384z"/>
	</g>
</g>
<g>
</g>
<g>
</g>
<g>
</g>
<g>
</g>
<g>
</g>
<g>
</g>
<g>
</g>
<g>
</g>
<g>
</g>
<g>
</g>
<g>
</g>
<g>
</g>
<g>
</g>
<g>
</g>
<g>
</g>
</svg>
