<?xml version="1.0" encoding="iso-8859-1"?>
<!-- Generator: Adobe Illustrator 19.0.0, SVG Export Plug-In . SVG Version: 6.00 Build 0)  -->
<svg version="1.1" id="Capa_1" xmlns="http://www.w3.org/2000/svg" xmlns:xlink="http://www.w3.org/1999/xlink" x="0px" y="0px"
	 viewBox="0 0 512 512" style="enable-background:new 0 0 512 512;" xml:space="preserve">
<g>
	<g>
		<path d="M341.333,64h-128c-23.531,0-42.667,19.135-42.667,42.667s19.135,42.667,42.667,42.667h128
			c30.771,0,58.823,16.646,73.896,42.667H42.667C19.135,192,0,211.135,0,234.667C0,250.392,8.642,264,21.333,271.4v165.934
			C21.333,443.229,26.104,448,32,448h448c5.896,0,10.667-4.771,10.667-10.667V271.4C503.358,264,512,250.392,512,234.667
			C512,140.563,435.438,64,341.333,64z M469.333,426.667h-42.667v-53.333c0-5.896-4.771-10.667-10.667-10.667
			c-5.896,0-10.667,4.771-10.667,10.667v53.333H298.667v-53.333c0-5.896-4.771-10.667-10.667-10.667s-10.667,4.771-10.667,10.667
			v53.333H256v-32c0-5.896-4.771-10.667-10.667-10.667c-5.896,0-10.667,4.771-10.667,10.667v32h-21.333v-96
			c0-5.896-4.771-10.667-10.667-10.667c-5.896,0-10.667,4.771-10.667,10.667v96h-64v-53.333c0-5.896-4.771-10.667-10.667-10.667
			c-5.896,0-10.667,4.771-10.667,10.667v53.333H85.333v-96c0-5.896-4.771-10.667-10.667-10.667C68.771,320,64,324.771,64,330.667v96
			H42.667V277.333h426.667V426.667z M469.333,256H42.667c-11.76,0-21.333-9.573-21.333-21.333c0-11.76,9.573-21.333,21.333-21.333
			h389.188c3.469,0,6.708-1.688,8.708-4.51c2-2.833,2.5-6.458,1.344-9.719C426.823,156.573,386.406,128,341.333,128h-128
			c-11.76,0-21.333-9.573-21.333-21.333c0-11.76,9.573-21.333,21.333-21.333h128c82.344,0,149.333,66.99,149.333,149.333
			C490.667,246.427,481.094,256,469.333,256z"/>
	</g>
</g>
<g>
</g>
<g>
</g>
<g>
</g>
<g>
</g>
<g>
</g>
<g>
</g>
<g>
</g>
<g>
</g>
<g>
</g>
<g>
</g>
<g>
</g>
<g>
</g>
<g>
</g>
<g>
</g>
<g>
</g>
</svg>
