<?xml version="1.0" encoding="iso-8859-1"?>
<!-- Generator: Adobe Illustrator 19.0.0, SVG Export Plug-In . SVG Version: 6.00 Build 0)  -->
<svg version="1.1" id="Capa_1" xmlns="http://www.w3.org/2000/svg" xmlns:xlink="http://www.w3.org/1999/xlink" x="0px" y="0px"
	 viewBox="0 0 511.984 511.984" style="enable-background:new 0 0 511.984 511.984;" xml:space="preserve">
<g>
	<g>
		<path d="M508.859,375.867l-92.521-92.521c-27.583-27.576-68.178-34.342-102.195-20.382l-16.617-33.233
			c-1.531-3.063-4.448-5.208-7.833-5.76c-3.448-0.583-6.844,0.552-9.25,2.99l-4.001,4.001L54.609,9.211
			c-12.083-12.083-33.167-12.083-45.25,0c-12.479,12.479-12.479,32.771,0,45.25l221.792,221.792l-4.042,4.042
			c-2.427,2.427-3.542,5.865-2.99,9.25c0.552,3.385,2.698,6.302,5.76,7.833l33.234,16.617
			c-13.961,34.017-7.195,74.612,20.38,102.195l92.521,92.521c2.083,2.083,4.813,3.125,7.542,3.125s5.458-1.042,7.542-3.125
			l117.76-117.76C513.026,386.784,513.026,380.034,508.859,375.867z M24.443,39.378c-4.156-4.156-4.156-10.927,0-15.083
			c4.042-4.021,11.042-4.021,15.083,0l221.832,221.751l-15.124,15.124L24.443,39.378z M252.661,284.909l32.396-32.396l10.499,20.99
			c-4.184,2.982-8.31,6.094-12.061,9.844c-3.75,3.751-6.862,7.878-9.844,12.061L252.661,284.909z M298.578,298.43
			c14.156-14.146,32.74-21.219,51.344-21.219c11.134,0,22.15,2.857,32.336,7.935l-96.966,96.966
			C271.732,354.927,275.948,321.069,298.578,298.43z M426.438,443.206l-34.911-34.911c-4.167-4.167-10.917-4.167-15.083,0
			c-4.167,4.167-4.167,10.917,0,15.083l34.911,34.911l-6.25,6.25l-13.578-13.578c-4.167-4.167-10.917-4.167-15.083,0
			c-4.167,4.167-4.167,10.917,0,15.083l13.578,13.578l-6.464,6.464l-84.979-84.979c-0.362-0.362-0.598-0.796-0.951-1.164
			l102.464-102.464c0.368,0.353,0.802,0.589,1.164,0.951l84.979,84.979L426.438,443.206z"/>
	</g>
</g>
<g>
</g>
<g>
</g>
<g>
</g>
<g>
</g>
<g>
</g>
<g>
</g>
<g>
</g>
<g>
</g>
<g>
</g>
<g>
</g>
<g>
</g>
<g>
</g>
<g>
</g>
<g>
</g>
<g>
</g>
</svg>
