<?xml version="1.0" encoding="iso-8859-1"?>
<!-- Generator: Adobe Illustrator 19.0.0, SVG Export Plug-In . SVG Version: 6.00 Build 0)  -->
<svg version="1.1" id="Capa_1" xmlns="http://www.w3.org/2000/svg" xmlns:xlink="http://www.w3.org/1999/xlink" x="0px" y="0px"
	 viewBox="0 0 512 512" style="enable-background:new 0 0 512 512;" xml:space="preserve">
<g>
	<g>
		<path d="M446.875,496.563l-41.542-83.083v-8.146c0-23.531-19.135-42.667-42.667-42.667H288V32c0-17.646-14.354-32-32-32
			s-32,14.354-32,32v330.667h-74.667c-23.531,0-42.667,19.135-42.667,42.667v8.146l-41.542,83.083
			c-1.656,3.302-1.479,7.229,0.469,10.375c1.948,3.146,5.375,5.063,9.073,5.063h362.667c3.698,0,7.125-1.917,9.073-5.063
			C448.354,503.792,448.531,499.865,446.875,496.563z M245.333,32c0-5.885,4.781-10.667,10.667-10.667
			c5.885,0,10.667,4.781,10.667,10.667v330.667h-21.333V32z M149.333,384h213.333c11.76,0,21.333,9.573,21.333,21.333H128
			C128,393.573,137.573,384,149.333,384z M405.333,490.667V480c0-5.896-4.771-10.667-10.667-10.667S384,474.104,384,480v10.667
			h-21.333v-32c0-5.896-4.771-10.667-10.667-10.667c-5.896,0-10.667,4.771-10.667,10.667v32h-42.667V480
			c0-5.896-4.771-10.667-10.667-10.667s-10.667,4.771-10.667,10.667v10.667H192v-32c0-5.896-4.771-10.667-10.667-10.667
			c-5.896,0-10.667,4.771-10.667,10.667v32h-21.333V480c0-5.896-4.771-10.667-10.667-10.667c-5.896,0-10.667,4.771-10.667,10.667
			v10.667H91.927l32-64h264.146l32,64H405.333z"/>
	</g>
</g>
<g>
</g>
<g>
</g>
<g>
</g>
<g>
</g>
<g>
</g>
<g>
</g>
<g>
</g>
<g>
</g>
<g>
</g>
<g>
</g>
<g>
</g>
<g>
</g>
<g>
</g>
<g>
</g>
<g>
</g>
</svg>
