<?xml version="1.0" encoding="iso-8859-1"?>
<!-- Generator: Adobe Illustrator 19.0.0, SVG Export Plug-In . SVG Version: 6.00 Build 0)  -->
<svg version="1.1" id="Capa_1" xmlns="http://www.w3.org/2000/svg" xmlns:xlink="http://www.w3.org/1999/xlink" x="0px" y="0px"
	 viewBox="0 0 512 512" style="enable-background:new 0 0 512 512;" xml:space="preserve">
<g>
	<g>
		<path d="M309.333,228.172v-25.547c0-17.349-8.46-32.639-21.333-42.376V32c0-17.646-14.354-32-32-32s-32,14.354-32,32v128.335
			c-12.785,9.717-21.207,24.909-21.25,42.145l-0.069,25.685c-31.734,18.503-53.348,52.531-53.348,91.836v181.333
			c0,5.896,4.771,10.667,10.667,10.667h192c5.896,0,10.667-4.771,10.667-10.667V320
			C362.667,280.702,341.059,246.677,309.333,228.172z M245.333,32c0-5.885,4.781-10.667,10.667-10.667S266.667,26.115,266.667,32
			v118.408c-3.435-0.698-6.987-1.074-10.625-1.074c-3.667,0-7.247,0.374-10.708,1.085V32z M224.083,202.542
			c0.042-17.573,14.385-31.875,31.958-31.875C273.667,170.667,288,185,288,202.625v16.155c-10.167-3.228-20.779-5.447-32-5.447
			c-11.206,0-21.806,2.215-31.961,5.435L224.083,202.542z M341.333,490.667H320v-53.333c0-5.896-4.771-10.667-10.667-10.667
			c-5.896,0-10.667,4.771-10.667,10.667v53.333h-53.333v-32c0-5.896-4.771-10.667-10.667-10.667
			c-5.896,0-10.667,4.771-10.667,10.667v32h-10.667V416c0-5.896-4.771-10.667-10.667-10.667c-5.896,0-10.667,4.771-10.667,10.667
			v74.667h-21.333V341.333h170.667V490.667z M170.667,320c0-47.052,38.281-85.333,85.333-85.333s85.333,38.281,85.333,85.333
			H170.667z"/>
	</g>
</g>
<g>
</g>
<g>
</g>
<g>
</g>
<g>
</g>
<g>
</g>
<g>
</g>
<g>
</g>
<g>
</g>
<g>
</g>
<g>
</g>
<g>
</g>
<g>
</g>
<g>
</g>
<g>
</g>
<g>
</g>
</svg>
