<?xml version="1.0" encoding="iso-8859-1"?>
<!-- Generator: Adobe Illustrator 19.0.0, SVG Export Plug-In . SVG Version: 6.00 Build 0)  -->
<svg version="1.1" id="Capa_1" xmlns="http://www.w3.org/2000/svg" xmlns:xlink="http://www.w3.org/1999/xlink" x="0px" y="0px"
	 viewBox="0 0 512 512" style="enable-background:new 0 0 512 512;" xml:space="preserve">
<g>
	<g>
		<g>
			<path d="M195.042,409.677c-12.792,13.073-20.917,29.49-23.521,47.469c-0.833,5.833,3.208,11.24,9.042,12.083
				c0.521,0.073,1.021,0.104,1.542,0.104c5.208,0,9.771-3.833,10.542-9.146c1.938-13.469,8.042-25.771,17.646-35.594
				c4.125-4.208,4.042-10.958-0.167-15.083C205.896,405.396,199.146,405.479,195.042,409.677z"/>
			<path d="M394.667,490.667H384v-21.333c0-55.605-35.699-102.905-85.333-120.533V288c0-5.896-4.771-10.667-10.667-10.667V32
				c0-17.646-14.354-32-32-32s-32,14.354-32,32v245.333c-5.896,0-10.667,4.771-10.667,10.667v60.801
				C163.699,366.428,128,413.728,128,469.333v21.333h-10.667c-5.896,0-10.667,4.771-10.667,10.667
				c0,5.896,4.771,10.667,10.667,10.667h21.333h234.667h21.333c5.896,0,10.667-4.771,10.667-10.667
				C405.333,495.438,400.563,490.667,394.667,490.667z M245.333,32c0-5.885,4.792-10.667,10.667-10.667S266.667,26.115,266.667,32
				v245.333h-21.333V32z M234.667,298.667h42.667v44.594c-6.954-1.174-14.051-1.927-21.333-1.927s-14.379,0.753-21.333,1.927
				V298.667z M362.667,490.667H149.333v-21.333c0-58.813,47.854-106.667,106.667-106.667s106.667,47.854,106.667,106.667V490.667z"
				/>
		</g>
	</g>
</g>
<g>
</g>
<g>
</g>
<g>
</g>
<g>
</g>
<g>
</g>
<g>
</g>
<g>
</g>
<g>
</g>
<g>
</g>
<g>
</g>
<g>
</g>
<g>
</g>
<g>
</g>
<g>
</g>
<g>
</g>
</svg>
