<?xml version="1.0" encoding="iso-8859-1"?>
<!-- Generator: Adobe Illustrator 19.0.0, SVG Export Plug-In . SVG Version: 6.00 Build 0)  -->
<svg version="1.1" id="Capa_1" xmlns="http://www.w3.org/2000/svg" xmlns:xlink="http://www.w3.org/1999/xlink" x="0px" y="0px"
	 viewBox="0 0 512 512" style="enable-background:new 0 0 512 512;" xml:space="preserve">
<g>
	<g>
		<g>
			<path d="M435.458,137.958l-21.167-31.75c-5.854-8.802-8.958-19.031-8.958-29.583V10.667C405.333,4.771,400.563,0,394.667,0
				H117.333c-5.896,0-10.667,4.771-10.667,10.667v65.958c0,10.552-3.104,20.781-8.958,29.583l-21.167,31.75
				C68.333,150.281,64,164.604,64,179.375v289.958C64,492.865,83.146,512,106.667,512h234.667c9.167,0,18.25-3.031,25.604-8.531
				l64.021-48.01C441.625,447.427,448,434.667,448,421.333V179.375C448,164.604,443.667,150.281,435.458,137.958z M341.333,179.375
				v289.958c0,11.76-9.563,21.333-21.333,21.333H106.667c-11.771,0-21.333-9.573-21.333-21.333V179.375
				c0-10.552,3.104-20.781,8.958-29.583l21.167-31.75C123.667,105.719,128,91.396,128,76.625V21.333h256v55.292
				c0,10.552-3.104,20.781-8.958,29.583l-21.167,31.75C345.667,150.281,341.333,164.604,341.333,179.375z M426.667,421.333
				c0,6.667-3.188,13.063-8.521,17.073l-57.458,43.083c1.163-3.878,1.979-7.904,1.979-12.156V179.375
				c0-10.552,3.104-20.781,8.958-29.583l21.167-31.75c0.71-1.065,1.224-2.223,1.875-3.316c0.651,1.094,1.165,2.251,1.875,3.316
				l21.167,31.75c5.854,8.802,8.958,19.031,8.958,29.583V421.333z"/>
			<path d="M288,42.667h-85.333c-17.646,0-32,14.354-32,32c0,17.646,14.354,32,32,32H288c17.646,0,32-14.354,32-32
				C320,57.021,305.646,42.667,288,42.667z M288,85.333h-85.333c-5.875,0-10.667-4.781-10.667-10.667
				C192,68.781,196.792,64,202.667,64H288c5.875,0,10.667,4.781,10.667,10.667C298.667,80.552,293.875,85.333,288,85.333z"/>
			<path d="M309.333,213.333h-192c-5.896,0-10.667,4.771-10.667,10.667v213.333c0,5.896,4.771,10.667,10.667,10.667h192
				c5.896,0,10.667-4.771,10.667-10.667V224C320,218.104,315.229,213.333,309.333,213.333z M298.667,426.667H128v-192h170.667
				V426.667z"/>
			<path d="M181.333,320c17.646,0,32-14.354,32-32s-14.354-32-32-32c-17.646,0-32,14.354-32,32S163.688,320,181.333,320z
				 M181.333,277.333c5.875,0,10.667,4.781,10.667,10.667s-4.792,10.667-10.667,10.667s-10.667-4.781-10.667-10.667
				S175.458,277.333,181.333,277.333z"/>
			<path d="M213.333,320c-23.521,0-42.667,19.135-42.667,42.667s19.146,42.667,42.667,42.667c23.521,0,42.667-19.135,42.667-42.667
				S236.854,320,213.333,320z M213.333,384C201.563,384,192,374.427,192,362.667s9.563-21.333,21.333-21.333
				c11.771,0,21.333,9.573,21.333,21.333S225.104,384,213.333,384z"/>
			<path d="M256,298.667c11.771,0,21.333-9.573,21.333-21.333c0-11.76-9.563-21.333-21.333-21.333s-21.333,9.573-21.333,21.333
				C234.667,289.094,244.229,298.667,256,298.667z"/>
		</g>
	</g>
</g>
<g>
</g>
<g>
</g>
<g>
</g>
<g>
</g>
<g>
</g>
<g>
</g>
<g>
</g>
<g>
</g>
<g>
</g>
<g>
</g>
<g>
</g>
<g>
</g>
<g>
</g>
<g>
</g>
<g>
</g>
</svg>
