<?xml version="1.0" encoding="iso-8859-1"?>
<!-- Generator: Adobe Illustrator 19.0.0, SVG Export Plug-In . SVG Version: 6.00 Build 0)  -->
<svg version="1.1" id="Capa_1" xmlns="http://www.w3.org/2000/svg" xmlns:xlink="http://www.w3.org/1999/xlink" x="0px" y="0px"
	 viewBox="0 0 512 512" style="enable-background:new 0 0 512 512;" xml:space="preserve">
<g>
	<g>
		<g>
			<path d="M234.667,64.54V42.667C234.667,19.135,215.531,0,192,0h-85.333C83.135,0,64,19.135,64,42.667V71.49
				c-25.134,12.033-42.667,37.505-42.667,67.177v298.667C21.333,478.5,54.833,512,96,512h320c41.167,0,74.667-33.5,74.667-74.667
				V330.667C490.667,187.225,376.744,70.202,234.667,64.54z M85.333,42.667c0-11.76,9.573-21.333,21.333-21.333H192
				c11.76,0,21.333,9.573,21.333,21.333V64H96c-3.652,0-7.152,0.569-10.667,1.078V42.667z M469.333,437.333
				c0,29.406-23.927,53.333-53.333,53.333H96c-29.406,0-53.333-23.927-53.333-53.333V138.667c0-29.406,23.927-53.333,53.333-53.333
				h128c135.281,0,245.333,110.052,245.333,245.333V437.333z"/>
			<path d="M245.333,128c-4.198,0-8.01,2.469-9.729,6.302c-1.719,3.823-1.031,8.313,1.76,11.448l170.667,192
				c2.063,2.323,4.979,3.583,7.969,3.583c1.271,0,2.552-0.229,3.792-0.698c4.135-1.573,6.875-5.542,6.875-9.969
				C426.667,242.177,338.729,128,245.333,128z M272.417,153.083c59.76,16.292,113.604,82.979,128.719,144.802L272.417,153.083z"/>
			<path d="M198.677,141.729C190.625,133,179.198,128,167.323,128H128c-23.531,0-42.667,19.135-42.667,42.667v234.667
				C85.333,428.865,104.469,448,128,448h236.25c17.198,0,32.177-9.792,39.073-25.552c6.906-15.76,3.948-33.406-7.396-45.677
				L198.677,141.729z M383.781,413.896c-3.5,8-10.802,12.771-19.531,12.771H128c-11.76,0-21.333-9.573-21.333-21.333V170.667
				c0-11.76,9.573-21.333,21.333-21.333h39.323c5.938,0,11.646,2.5,15.344,6.479l197.25,235.042
				C385.844,397.281,387.292,405.896,383.781,413.896z"/>
		</g>
	</g>
</g>
<g>
</g>
<g>
</g>
<g>
</g>
<g>
</g>
<g>
</g>
<g>
</g>
<g>
</g>
<g>
</g>
<g>
</g>
<g>
</g>
<g>
</g>
<g>
</g>
<g>
</g>
<g>
</g>
<g>
</g>
</svg>
