<?xml version="1.0" encoding="iso-8859-1"?>
<!-- Generator: Adobe Illustrator 19.0.0, SVG Export Plug-In . SVG Version: 6.00 Build 0)  -->
<svg version="1.1" id="Capa_1" xmlns="http://www.w3.org/2000/svg" xmlns:xlink="http://www.w3.org/1999/xlink" x="0px" y="0px"
	 viewBox="0 0 512 512" style="enable-background:new 0 0 512 512;" xml:space="preserve">
<g>
	<g>
		<g>
			<path d="M417.063,235.958c-15.188-30.677-30.896-62.385-32.646-118.958c-0.042-0.906-0.167-1.792-0.417-2.625V10.667
				C384,4.771,379.23,0,373.334,0h-64c-5.896,0-10.667,4.771-10.667,10.667v103.708c-0.25,0.833-0.375,1.719-0.417,2.625
				c-1.75,56.573-17.458,88.281-32.646,118.958c-15.208,30.719-30.938,62.49-30.938,116.042v117.333
				c0,23.531,19.146,42.667,42.667,42.667h128C428.855,512,448,492.865,448,469.333V352
				C448,298.448,432.271,266.677,417.063,235.958z M426.667,469.333c0,11.76-9.563,21.333-21.333,21.333h-128
				c-11.771,0-21.333-9.573-21.333-21.333V352c0-48.563,13.958-76.74,28.729-106.583c15.917-32.177,32.396-65.438,34.75-124.76
				c0.333-1.042,0.521-2.167,0.521-3.323v-96h42.667v96c0,1.104,0.188,2.177,0.521,3.188c2.333,59.417,18.813,92.698,34.75,124.896
				c14.771,29.844,28.729,58.021,28.729,106.583V469.333z"/>
			<path d="M318.146,250.063c-5.229-2.615-11.646-0.469-14.292,4.813c-14.229,28.719-26.521,53.521-26.521,97.125
				c0,5.896,4.771,10.667,10.667,10.667c5.896,0,10.667-4.771,10.667-10.667c0-38.604,10.188-59.177,24.313-87.646
				C325.584,259.073,323.438,252.677,318.146,250.063z"/>
			<path d="M196.75,275.542c1.813,1.208,3.875,1.792,5.917,1.792c3.438,0,6.813-1.667,8.875-4.75
				c3.271-4.906,1.938-11.521-2.958-14.792l-59.25-39.5V62.035c12.389-4.418,21.333-16.147,21.333-30.035c0-17.646-14.354-32-32-32
				c-17.646,0-32,14.354-32,32c0,13.888,8.944,25.617,21.333,30.035v156.257l-59.25,39.5c-4.896,3.271-6.229,9.885-2.958,14.792
				c3.271,4.906,9.917,6.198,14.792,2.958L128,243.934v17.025l-59.25,39.5c-4.896,3.271-6.229,9.885-2.958,14.792
				c3.271,4.917,9.917,6.188,14.792,2.958L128,286.6v17.025l-59.25,39.5c-4.896,3.271-6.229,9.885-2.958,14.792
				c3.271,4.906,9.917,6.188,14.792,2.958L128,329.267v17.025l-59.25,39.5c-4.896,3.271-6.229,9.885-2.958,14.792
				c3.271,4.906,9.917,6.177,14.792,2.958L128,371.934v17.025l-59.25,39.5c-4.896,3.271-6.229,9.885-2.958,14.792
				c3.271,4.896,9.917,6.198,14.792,2.958L128,414.6v17.025l-59.25,39.5c-4.896,3.271-6.229,9.885-2.958,14.792
				c3.271,4.896,9.917,6.188,14.792,2.958L128,457.267v44.066c0,5.896,4.771,10.667,10.667,10.667
				c5.896,0,10.667-4.771,10.667-10.667v-44.066l47.417,31.608c1.813,1.208,3.875,1.792,5.917,1.792c3.438,0,6.813-1.667,8.875-4.75
				c3.271-4.906,1.938-11.521-2.958-14.792l-59.25-39.5V414.6l47.417,31.608c1.813,1.208,3.875,1.792,5.917,1.792
				c3.438,0,6.813-1.667,8.875-4.75c3.271-4.906,1.938-11.521-2.958-14.792l-59.25-39.5v-17.025l47.417,31.608
				c1.813,1.208,3.875,1.792,5.917,1.792c3.438,0,6.813-1.667,8.875-4.75c3.271-4.906,1.938-11.521-2.958-14.792l-59.25-39.5
				v-17.025l47.417,31.608c1.813,1.208,3.875,1.792,5.917,1.792c3.438,0,6.813-1.667,8.875-4.75
				c3.271-4.906,1.938-11.521-2.958-14.792l-59.25-39.5V286.6l47.417,31.608c1.813,1.208,3.875,1.792,5.917,1.792
				c3.438,0,6.813-1.667,8.875-4.75c3.271-4.906,1.938-11.521-2.958-14.792l-59.25-39.5v-17.025L196.75,275.542z M138.667,42.667
				C132.792,42.667,128,37.885,128,32s4.792-10.667,10.667-10.667S149.334,26.115,149.334,32S144.542,42.667,138.667,42.667z"/>
		</g>
	</g>
</g>
<g>
</g>
<g>
</g>
<g>
</g>
<g>
</g>
<g>
</g>
<g>
</g>
<g>
</g>
<g>
</g>
<g>
</g>
<g>
</g>
<g>
</g>
<g>
</g>
<g>
</g>
<g>
</g>
<g>
</g>
</svg>
