<?xml version="1.0" encoding="iso-8859-1"?>
<!-- Generator: Adobe Illustrator 19.0.0, SVG Export Plug-In . SVG Version: 6.00 Build 0)  -->
<svg version="1.1" id="Capa_1" xmlns="http://www.w3.org/2000/svg" xmlns:xlink="http://www.w3.org/1999/xlink" x="0px" y="0px"
	 viewBox="0 0 512 512" style="enable-background:new 0 0 512 512;" xml:space="preserve">
<g>
	<g>
		<g>
			<path d="M447.896,499.823l-34.813-243.719C407.854,219.563,376.073,192,339.156,192h-50.371l9.09-127.26
				c0.531-7.344,0.792-14.708,0.792-22.073C298.667,19.135,279.531,0,256,0s-42.667,19.135-42.667,42.667
				c0,7.365,0.26,14.729,0.792,22.063L223.215,192h-50.371c-36.917,0-68.698,27.563-73.927,64.104L64.104,499.823
				c-0.438,3.063,0.479,6.167,2.5,8.5c2.031,2.333,4.969,3.677,8.063,3.677h362.667c3.094,0,6.031-1.344,8.063-3.677
				C447.417,505.99,448.333,502.885,447.896,499.823z M256,21.333c11.76,0,21.333,9.573,21.333,21.333
				c0,6.844-0.24,13.708-0.729,20.542L267.405,192h-22.81l-9.199-128.802c-0.49-6.823-0.729-13.688-0.729-20.531
				C234.667,30.906,244.24,21.333,256,21.333z M86.969,490.667l33.073-231.542c3.729-26.104,26.438-45.792,52.802-45.792h166.313
				c26.365,0,49.073,19.688,52.802,45.792l33.073,231.542H86.969z"/>
			<path d="M339.156,234.667H172.844c-15.823,0-29.448,11.813-31.688,27.469l-27.854,195.021c-0.833,5.833,3.219,11.24,9.052,12.073
				c5.938,0.875,11.24-3.219,12.073-9.052l27.854-195.021c0.74-5.219,5.281-9.156,10.563-9.156h166.313
				c5.281,0,9.823,3.938,10.563,9.167l27.854,195.01c0.76,5.323,5.323,9.156,10.552,9.156c0.5,0,1.01-0.031,1.521-0.104
				c5.833-0.833,9.885-6.24,9.052-12.073l-27.854-195.01C368.604,246.479,354.99,234.667,339.156,234.667z"/>
			<circle cx="256" cy="64" r="10.667"/>
		</g>
	</g>
</g>
<g>
</g>
<g>
</g>
<g>
</g>
<g>
</g>
<g>
</g>
<g>
</g>
<g>
</g>
<g>
</g>
<g>
</g>
<g>
</g>
<g>
</g>
<g>
</g>
<g>
</g>
<g>
</g>
<g>
</g>
</svg>
