<?xml version="1.0" encoding="iso-8859-1"?>
<!-- Generator: Adobe Illustrator 19.0.0, SVG Export Plug-In . SVG Version: 6.00 Build 0)  -->
<svg version="1.1" id="Capa_1" xmlns="http://www.w3.org/2000/svg" xmlns:xlink="http://www.w3.org/1999/xlink" x="0px" y="0px"
	 viewBox="0 0 512 512" style="enable-background:new 0 0 512 512;" xml:space="preserve">
<g>
	<g>
		<path d="M348.865,0c-15.635,0-29.156,10.063-33.646,25.042l-56.467,188.57c-0.927-0.06-1.809-0.279-2.751-0.279
			c-0.872,0-1.689,0.206-2.548,0.258L196.781,25.042C192.292,10.063,178.771,0,163.135,0C143.76,0,128,15.76,128,35.125v16.469
			c0,1.667,0.125,3.344,0.365,5.042l63.75,424.948c0.563,3.75,3.073,6.917,6.594,8.323l53.333,21.333
			c1.271,0.51,2.615,0.76,3.958,0.76s2.688-0.25,3.958-0.76l53.333-21.333c3.521-1.406,6.031-4.573,6.594-8.323l63.75-425
			c0.24-1.646,0.365-3.323,0.365-4.99V35.125C384,15.76,368.24,0,348.865,0z M245.333,344.198
			c-6.375,3.688-10.667,10.583-10.667,18.469s4.292,14.781,10.667,18.469v28.073c-6.531,5.281-10.667,15.531-10.667,28.125
			s4.135,22.844,10.667,28.125v20.125l-33.021-13.219L149.333,51.594V35.125c0-7.604,6.188-13.792,13.802-13.792
			c6.135,0,11.448,3.948,13.208,9.844l56.781,188.927c-11.863,7.586-19.792,20.797-19.792,35.896c0,19.827,13.648,36.383,32,41.152
			V344.198z M256,277.333c-11.76,0-21.333-9.573-21.333-21.333s9.573-21.333,21.333-21.333s21.333,9.573,21.333,21.333
			S267.76,277.333,256,277.333z M362.531,53.469l-62.844,418.896l-33.021,13.219v-20.125c6.531-5.281,10.667-15.531,10.667-28.125
			s-4.135-22.844-10.667-28.125v-28.073c6.375-3.688,10.667-10.583,10.667-18.469s-4.292-14.781-10.667-18.469v-47.046
			c18.352-4.77,32-21.326,32-41.152c0-15.029-7.846-28.198-19.616-35.801l56.605-189.033c1.76-5.885,7.073-9.833,13.208-9.833
			c7.615,0,13.802,6.188,13.802,13.792L362.531,53.469z"/>
	</g>
</g>
<g>
</g>
<g>
</g>
<g>
</g>
<g>
</g>
<g>
</g>
<g>
</g>
<g>
</g>
<g>
</g>
<g>
</g>
<g>
</g>
<g>
</g>
<g>
</g>
<g>
</g>
<g>
</g>
<g>
</g>
</svg>
