<?xml version="1.0" encoding="iso-8859-1"?>
<!-- Generator: Adobe Illustrator 19.0.0, SVG Export Plug-In . SVG Version: 6.00 Build 0)  -->
<svg version="1.1" id="Capa_1" xmlns="http://www.w3.org/2000/svg" xmlns:xlink="http://www.w3.org/1999/xlink" x="0px" y="0px"
	 viewBox="0 0 512 512" style="enable-background:new 0 0 512 512;" xml:space="preserve">
<g>
	<g>
		<path d="M512,255.991c0-14.984-11.247-25.379-25.087-33.121c11.543-6.096,18.805-10.409,19.9-11.066
			c3.229-1.927,5.188-5.396,5.188-9.146c0-29.177-40.479-41.823-83.333-55.219c-18.25-5.698-37.104-11.594-50.563-18.323
			c-34.75-17.375-59.292-59.365-59.521-59.781c-2.125-3.656-6.271-5.656-10.438-5.281c-56.313,6.26-81.688,26.646-102.104,43.031
			C190.917,119.22,180,127.991,160,127.991c-54.958,0-149.667,41.802-153.667,43.583C2.479,173.293,0,177.106,0,181.324
			s2.479,8.031,6.333,9.75c12.68,5.634,25.837,11.958,38.422,18.368c-21.991,8.214-37.551,15.087-38.401,15.465
			C2.479,226.616,0,230.439,0,234.647c0,4.219,2.479,8.042,6.333,9.76c12.68,5.634,25.837,11.958,38.422,18.369
			c-21.991,8.214-37.551,15.087-38.401,15.465C2.479,279.949,0,283.772,0,287.981c0,4.219,2.479,8.042,6.333,9.76
			c44.5,19.771,95.938,47.969,101.458,59.021c24.938,49.854,86.688,88.063,89.313,89.656c1.688,1.042,3.625,1.573,5.563,1.573
			c1.229,0,2.479-0.208,3.667-0.646c3.042-1.115,5.417-3.563,6.458-6.646c0.188-0.573,19.792-56.708,96.542-56.708
			c87.292,0,193.021-62.844,197.479-65.521c3.229-1.927,5.188-5.396,5.188-9.146c0-14.984-11.247-25.379-25.087-33.121
			c11.543-6.096,18.805-10.409,19.9-11.066C510.042,263.21,512,259.741,512,255.991z M37.25,181.845
			c31.042-12.302,87.438-32.521,122.75-32.521c27.5,0,43-12.438,59.396-25.604c18.333-14.719,39-31.313,84.479-37.635
			c8.854,13.552,32.396,45.969,64.688,62.115c15,7.49,34.688,13.646,53.729,19.604c25.167,7.854,58.396,18.25,66.521,29.719
			c-24.792,13.802-110.375,58.469-179.479,58.469c-68.958,0-99.625,38.448-111.063,58.917
			c-17.813-12.49-54.813-41.167-71.396-74.354C117.938,222.699,69.396,197.189,37.25,181.845z M488.729,304.241
			c-24.917,13.865-110.375,58.417-179.396,58.417c-68.958,0-99.625,38.448-111.063,58.917
			c-17.813-12.49-54.813-41.167-71.396-74.354c-8.938-17.854-57.458-43.354-89.604-58.698c9.124-3.616,20.607-7.914,32.9-12.164
			c19.833,11.228,34.792,21.406,37.621,27.07c24.938,49.854,86.688,88.063,89.313,89.656c1.688,1.042,3.625,1.573,5.563,1.573
			c1.229,0,2.479-0.208,3.667-0.646c3.042-1.115,5.417-3.563,6.458-6.646c0.188-0.573,19.792-56.708,96.542-56.708
			c53.354,0,113.488-23.456,153.284-42.322C478.064,294.683,485.682,300.071,488.729,304.241z M309.333,309.324
			c-68.958,0-99.625,38.448-111.063,58.917c-17.813-12.49-54.813-41.167-71.396-74.354c-8.938-17.854-57.458-43.354-89.604-58.698
			c9.124-3.616,20.607-7.914,32.9-12.164c19.833,11.228,34.792,21.406,37.621,27.07c24.938,49.854,86.688,88.063,89.313,89.656
			c1.688,1.042,3.625,1.573,5.563,1.573c1.229,0,2.479-0.219,3.667-0.646c3.042-1.115,5.417-3.563,6.458-6.646
			c0.188-0.573,19.792-56.708,96.542-56.708c53.354,0,113.488-23.456,153.284-42.322c15.447,6.346,23.065,11.734,26.112,15.905
			C463.813,264.772,378.354,309.324,309.333,309.324z"/>
	</g>
</g>
<g>
</g>
<g>
</g>
<g>
</g>
<g>
</g>
<g>
</g>
<g>
</g>
<g>
</g>
<g>
</g>
<g>
</g>
<g>
</g>
<g>
</g>
<g>
</g>
<g>
</g>
<g>
</g>
<g>
</g>
</svg>
