<?xml version="1.0" encoding="iso-8859-1"?>
<!-- Generator: Adobe Illustrator 19.0.0, SVG Export Plug-In . SVG Version: 6.00 Build 0)  -->
<svg version="1.1" id="Capa_1" xmlns="http://www.w3.org/2000/svg" xmlns:xlink="http://www.w3.org/1999/xlink" x="0px" y="0px"
	 viewBox="0 0 512 512" style="enable-background:new 0 0 512 512;" xml:space="preserve">
<g>
	<g>
		<g>
			<path d="M333.686,63.694C361.674,62.094,384,39.039,384,10.667C384,4.771,379.229,0,373.333,0H10.667C4.771,0,0,4.771,0,10.667
				c0,28.372,22.326,51.427,50.314,53.027l130.824,60.381l-10.471,376.966c-0.083,2.875,1.021,5.667,3.021,7.729
				s4.771,3.229,7.646,3.229h21.333c2.875,0,5.646-1.167,7.646-3.229s3.104-4.854,3.021-7.729l-10.471-376.966L333.686,63.694z
				 M23.167,21.333h337.667c-4.396,12.417-16.25,21.333-30.167,21.333H53.333C39.417,42.667,27.563,33.75,23.167,21.333z
				 M192,105.583L101.91,64h180.18L192,105.583z"/>
			<path d="M480,257.354V224c0-5.896-4.771-10.667-10.667-10.667v-42.667c0-23.531-19.146-42.667-42.667-42.667h-96
				c-5.896,0-10.667,4.771-10.667,10.667v10.667h-10.667c-5.896,0-10.667,4.771-10.667,10.667s4.771,10.667,10.667,10.667H320
				v10.667c0,5.896,4.771,10.667,10.667,10.667h38.257l-24.465,24.458c-4.167,4.167-4.167,10.917,0,15.083
				c2.083,2.083,4.813,3.125,7.542,3.125c2.729,0,5.458-1.042,7.542-3.125L399.094,192h6.24v21.333
				c-5.896,0-10.667,4.771-10.667,10.667v33.354c-18.375,4.74-32,21.469-32,41.313v170.667c0,23.531,19.146,42.667,42.667,42.667h64
				C492.854,512,512,492.865,512,469.333V298.667C512,278.823,498.375,262.094,480,257.354z M458.667,234.667V256H416v-21.333
				H458.667z M341.333,170.667v-21.333h85.333c11.771,0,21.333,9.573,21.333,21.333v42.667h-21.333v-32
				c0-5.896-4.771-10.667-10.667-10.667H341.333z M490.667,469.333c0,11.76-9.563,21.333-21.333,21.333h-64
				c-11.771,0-21.333-9.573-21.333-21.333V448h106.667V469.333z M490.667,426.667H384v-85.333h106.667V426.667z M490.667,320H384
				v-21.333c0-11.76,9.563-21.333,21.333-21.333h64c11.771,0,21.333,9.573,21.333,21.333V320z"/>
		</g>
	</g>
</g>
<g>
</g>
<g>
</g>
<g>
</g>
<g>
</g>
<g>
</g>
<g>
</g>
<g>
</g>
<g>
</g>
<g>
</g>
<g>
</g>
<g>
</g>
<g>
</g>
<g>
</g>
<g>
</g>
<g>
</g>
</svg>
