<?xml version="1.0" encoding="iso-8859-1"?>
<!-- Generator: Adobe Illustrator 19.0.0, SVG Export Plug-In . SVG Version: 6.00 Build 0)  -->
<svg version="1.1" id="Capa_1" xmlns="http://www.w3.org/2000/svg" xmlns:xlink="http://www.w3.org/1999/xlink" x="0px" y="0px"
	 viewBox="0 0 511.987 511.987" style="enable-background:new 0 0 511.987 511.987;" xml:space="preserve">
<g>
	<g>
		<g>
			<path d="M509.651,451.837c-0.417-0.5-40.333-50.854-40.333-89.333c0-58.813-47.854-106.667-106.667-106.667
				c-15.91,0-30.878,3.74-44.453,10.013l-9.172-23.305c-3.542-10.594-12.146-18.458-23-21.021
				c-6.102-1.47-12.283-0.908-17.991,1.124L54.609,9.212c-12.083-12.083-33.167-12.083-45.25,0
				c-12.479,12.479-12.479,32.771,0,45.25l213.44,213.44c-2.01,5.674-2.569,11.824-1.128,17.935
				c2.542,10.885,10.417,19.49,21.479,23.177l24.052,6.818c-6.958,14.159-11.219,29.861-11.219,46.672
				c0,0.366,0.104,0.703,0.108,1.068c-24.371,4.914-42.775,26.474-42.775,52.266v10.667c-23.521,0-42.667,19.135-42.667,42.667
				s19.146,42.667,42.667,42.667h224c25.763,0,47.299-18.353,52.255-42.667h11.745c4.104,0,7.833-2.354,9.604-6.042
				C512.714,459.431,512.214,455.045,509.651,451.837z M24.443,39.379c-4.167-4.156-4.167-10.927,0-15.083
				c4.042-4.021,11.042-4.021,15.083,0l211.116,211.126l-15.076,15.081L24.443,39.379z M249.443,288.639
				c-5.104-1.708-6.604-5.948-7.021-7.688c-0.396-1.74-0.938-6.188,2.854-9.979l25.833-25.844c3.771-3.802,8.229-3.25,10-2.844
				c1.75,0.406,5.979,1.917,7.875,7.542l10.655,27.073c-7.77,5.736-14.596,12.539-20.557,20.128L249.443,288.639z M437.318,490.504
				h-224c-11.771,0-21.333-9.573-21.333-21.333c0-11.76,9.563-21.333,21.333-21.333h10.667c5.896,0,10.667-4.771,10.667-10.667
				v-21.333c0-14.806,10.156-27.176,23.832-30.811c10.382,48.016,53.094,84.145,104.168,84.145h104.702
				C462.935,481.56,451.206,490.504,437.318,490.504z M362.651,447.837c-47.063,0-85.333-38.281-85.333-85.333
				c0-47.052,38.271-85.333,85.333-85.333c47.062,0,85.333,38.281,85.333,85.333c0,30.646,19.25,65.125,32.583,85.333H362.651z"/>
			<path d="M362.651,298.504c-5.896,0-10.667,4.771-10.667,10.667c0,5.896,4.771,10.667,10.667,10.667
				c23.521,0,42.667,19.135,42.667,42.667c0,5.896,4.771,10.667,10.667,10.667c5.896,0,10.667-4.771,10.667-10.667
				C426.651,327.212,397.943,298.504,362.651,298.504z"/>
		</g>
	</g>
</g>
<g>
</g>
<g>
</g>
<g>
</g>
<g>
</g>
<g>
</g>
<g>
</g>
<g>
</g>
<g>
</g>
<g>
</g>
<g>
</g>
<g>
</g>
<g>
</g>
<g>
</g>
<g>
</g>
<g>
</g>
</svg>
