<?xml version="1.0" encoding="iso-8859-1"?>
<!-- Generator: Adobe Illustrator 19.0.0, SVG Export Plug-In . SVG Version: 6.00 Build 0)  -->
<svg version="1.1" id="Capa_1" xmlns="http://www.w3.org/2000/svg" xmlns:xlink="http://www.w3.org/1999/xlink" x="0px" y="0px"
	 viewBox="0 0 512 512" style="enable-background:new 0 0 512 512;" xml:space="preserve">
<g>
	<g>
		<g>
			<path d="M170.667,426.667c0,23.531,19.135,42.667,42.667,42.667S256,450.198,256,426.667S236.865,384,213.333,384
				S170.667,403.135,170.667,426.667z M234.667,426.667c0,11.76-9.573,21.333-21.333,21.333c-11.76,0-21.333-9.573-21.333-21.333
				s9.573-21.333,21.333-21.333C225.094,405.333,234.667,414.906,234.667,426.667z"/>
			<path d="M469.333,448v-21.333c0-11.76-9.573-21.333-21.333-21.333V128C448,57.417,390.583,0,320,0S192,57.417,192,128v106.667
				h-10.667c-76.458,0-138.667,62.208-138.667,138.667v32h-32C4.771,405.333,0,410.104,0,416v42.667
				c0,5.896,4.771,10.667,10.667,10.667h32c0,23.531,19.135,42.667,42.667,42.667h128c47.052,0,85.333-38.281,85.333-85.333
				c0-31.441-17.285-58.659-42.667-73.462V128c0-35.292,28.708-64,64-64s64,28.708,64,64v277.333
				c-11.76,0-21.333,9.573-21.333,21.333V448C339.135,448,320,467.135,320,490.667v10.667c0,5.896,4.771,10.667,10.667,10.667
				h170.667c5.896,0,10.667-4.771,10.667-10.667v-10.667C512,467.135,492.865,448,469.333,448z M42.667,448H21.333v-21.333h21.333
				V448z M213.333,149.333h21.333V240.6c-6.301-3.674-13.527-5.934-21.333-5.934V149.333z M85.333,490.667
				c-11.76,0-21.333-9.573-21.333-21.333v-96C64,308.635,116.635,256,181.333,256h32c11.76,0,21.333,9.573,21.333,21.333V288v56.363
				c-6.859-1.783-13.924-3.03-21.333-3.03c-47.052,0-85.333,38.281-85.333,85.333c0,25.607,11.572,48.346,29.491,64H85.333z
				 M277.333,426.667c0,35.292-28.708,64-64,64c-35.292,0-64-28.708-64-64s28.708-64,64-64
				C248.625,362.667,277.333,391.375,277.333,426.667z M320,42.667c-47.052,0-85.333,38.281-85.333,85.333h-21.333
				c0-58.813,47.854-106.667,106.667-106.667S426.667,69.188,426.667,128v277.333h-21.333V128
				C405.333,80.948,367.052,42.667,320,42.667z M384,426.667h64V448h-64V426.667z M341.333,490.667
				c0-11.76,9.573-21.333,21.333-21.333h106.667c11.76,0,21.333,9.573,21.333,21.333H341.333z"/>
		</g>
	</g>
</g>
<g>
</g>
<g>
</g>
<g>
</g>
<g>
</g>
<g>
</g>
<g>
</g>
<g>
</g>
<g>
</g>
<g>
</g>
<g>
</g>
<g>
</g>
<g>
</g>
<g>
</g>
<g>
</g>
<g>
</g>
</svg>
