<?xml version="1.0" encoding="iso-8859-1"?>
<!-- Generator: Adobe Illustrator 19.0.0, SVG Export Plug-In . SVG Version: 6.00 Build 0)  -->
<svg version="1.1" id="Capa_1" xmlns="http://www.w3.org/2000/svg" xmlns:xlink="http://www.w3.org/1999/xlink" x="0px" y="0px"
	 viewBox="0 0 511.995 511.995" style="enable-background:new 0 0 511.995 511.995;" xml:space="preserve">
<g>
	<g>
		<path d="M509.729,345.425c-0.313-0.396-30.938-39.802-40.896-71.302c-2.354-7.5-5.313-18.063-8.708-30.167
			c-16.188-57.906-30.917-107.177-47.25-123.5c-18.63-18.63-91.637-30.48-115.921-33.969c-8.409-14.655-18.5-22.49-30.288-22.49
			c-33.125,0-160,44.073-160,117.333c0,31.99-31.646,79.146-59.583,120.75C21.813,339.727,0,372.237,0,394.664
			c0,53.333,53.229,53.333,96,53.333c23.854,0,36.375-6.26,47.438-11.792c10.229-5.125,19.083-9.542,37.896-9.542
			c66.479,0,117.333-2.354,117.333-32c0-2.299,0.29-6.996,0.757-13.177c0.28,0.169,0.547,0.34,0.827,0.51
			c21.729,13.188,44.229,26.823,63.854,60.688c1.917,3.292,5.417,5.313,9.229,5.313c101.5,0,137.604-91.26,137.958-92.188
			C512.625,352.321,512.042,348.373,509.729,345.425z M280.354,100.06l18.167,71.396l-1.69,16.349
			c-3.59-7.138-6.865-14.349-9.602-21.13c-7.875-19.51-38.917-58.708-66-64.219c-5.649-1.174-10.95-0.891-15.729,0.768
			c25.174-11.332,49.6-17.893,61.166-17.893C270.625,85.331,275.708,90.81,280.354,100.06z M277.417,394.341
			c-6.083,10.99-73.833,10.99-96.083,10.99c-8.207,0-14.73,0.904-20.656,2.102C173.806,377.995,192,323.258,192,245.331
			c0-5.896-4.771-10.667-10.667-10.667s-10.667,4.771-10.667,10.667c0,100.586-32.424,161.124-39.477,173.094
			c-9.177,4.526-18.053,8.24-35.19,8.24c-50.75,0-74.667-3.156-74.667-32c0-15.927,22.104-48.854,43.479-80.698
			C94.417,269.831,128,219.81,128,181.331c0-31.733,36.303-58.671,72.659-75.876c-1.969,1.173-3.82,2.618-5.534,4.335
			c-25.688,25.667-10.979,69.333,9.417,98.927c16.333,23.698,28.458,51.677,30.167,69.625c0.292,2.979,0.417,5.802,0.542,8.594
			c0.708,15.406,1.458,31.344,22.792,60.667c6.138,8.438,13.319,14.901,21.055,20.608
			C278.017,381.136,277.345,390.826,277.417,394.341z M379.292,426.539c-21.708-34.719-47.25-50.208-67.979-62.781
			c-14.542-8.813-27.083-16.427-36.021-28.698c-17.583-24.167-18.083-35.167-18.729-49.104c-0.146-3.135-0.292-6.302-0.604-9.635
			c-2.063-21.583-15.333-52.875-33.833-79.708c-16.458-23.854-27.188-56.469-11.917-71.74c1.271-1.24,2.917-2.292,6.771-1.51
			c16.708,3.396,43.667,34.479,50.458,51.292c8.167,20.219,30.271,68.542,59.146,80.531c3.292,1.344,7.063,0.99,10-0.979
			c10.667-7.104,15.542-18.229,19.104-26.344c1.021-2.333,2.438-5.531,2.396-5.76c4.354-3.021,5.833-8.792,3.458-13.542
			c-3.25-6.49-8.25-23.865-9.917-30.01c-0.875-3.24-3.208-5.875-6.333-7.125l-27.568-11.027l-13.017-51.143
			c37.186,5.999,83.388,16.598,93.085,26.285c13.708,13.708,31.292,76.583,41.792,114.156c3.458,12.375,6.5,23.177,8.917,30.844
			c8.938,28.333,31.375,60.458,40.5,72.833C480.604,370.414,448.833,423.644,379.292,426.539z M315.159,217.852l3.536-34.086
			l13.784,5.513c1.646,5.792,4.458,15.167,7.271,22.479c-1.292,2.281-2.417,4.823-3.604,7.531c-1.938,4.417-4.042,9.25-7,13
			C324.453,228.947,319.743,223.841,315.159,217.852z"/>
	</g>
</g>
<g>
</g>
<g>
</g>
<g>
</g>
<g>
</g>
<g>
</g>
<g>
</g>
<g>
</g>
<g>
</g>
<g>
</g>
<g>
</g>
<g>
</g>
<g>
</g>
<g>
</g>
<g>
</g>
<g>
</g>
</svg>
