<?xml version="1.0" encoding="iso-8859-1"?>
<!-- Generator: Adobe Illustrator 19.0.0, SVG Export Plug-In . SVG Version: 6.00 Build 0)  -->
<svg version="1.1" id="Capa_1" xmlns="http://www.w3.org/2000/svg" xmlns:xlink="http://www.w3.org/1999/xlink" x="0px" y="0px"
	 viewBox="0 0 512 512" style="enable-background:new 0 0 512 512;" xml:space="preserve">
<g>
	<g>
		<g>
			<path d="M362.667,129.078v-11.745h10.667c5.896,0,10.667-4.771,10.667-10.667V64c0-5.896-4.771-10.667-10.667-10.667h-42.667
				C324.771,53.333,320,58.104,320,64v42.667c0,5.896,4.771,10.667,10.667,10.667h10.667v11.745
				C293.465,134.464,256,174.715,256,224v245.333C256,492.865,275.146,512,298.667,512h106.667C428.854,512,448,492.865,448,469.333
				V224C448,174.715,410.535,134.464,362.667,129.078z M341.333,74.667h21.333V96h-21.333V74.667z M426.667,469.333
				c0,11.76-9.563,21.333-21.333,21.333H298.667c-11.771,0-21.333-9.573-21.333-21.333V448h149.333V469.333z M426.667,426.667
				H277.333V256h149.333V426.667z M426.667,234.667H277.333V224c0-41.167,33.5-74.667,74.667-74.667s74.667,33.5,74.667,74.667
				V234.667z"/>
			<path d="M202.667,170.667c-5.896,0-10.667,4.771-10.667,10.667c0,17.646-14.354,32-32,32s-32-14.354-32-31.979l0.333-2.948
				c0.396-4.844-2.521-9.354-7.125-10.948c-21.458-7.479-35.875-27.625-35.875-50.125c0-22.615,14.542-42.802,36.167-50.208
				c3.708-1.271,6.438-4.49,7.063-8.365C131.125,43.26,144.333,32,160,32c6.542,0,12.875,2.01,18.292,5.833
				c2.604,1.802,5.854,2.375,8.875,1.583c3.042-0.802,5.583-2.917,6.917-5.76c3.583-7.604,10.958-12.323,19.25-12.323
				c11.771,0,21.333,9.573,21.333,21.333c0,5.896,4.771,10.667,10.667,10.667c5.896,0,10.667-4.771,10.667-10.667
				C256,19.135,236.854,0,213.333,0c-12.542,0-24.354,5.656-32.354,15c-6.604-2.854-13.708-4.333-20.979-4.333
				c-24.021,0-44.604,15.844-51.104,38.479C81.813,60.948,64,87.625,64,117.333c0,28.885,16.896,54.99,42.771,67.229
				c1.667,27.906,24.896,50.104,53.229,50.104c29.417,0,53.333-23.927,53.333-53.333
				C213.333,175.438,208.563,170.667,202.667,170.667z"/>
			<path d="M234.667,74.667c0,5.896,4.771,10.667,10.667,10.667H288c5.896,0,10.667-4.771,10.667-10.667
				C298.667,68.771,293.896,64,288,64h-42.667C239.438,64,234.667,68.771,234.667,74.667z"/>
			<path d="M160,85.333c-5.896,0-10.667,4.771-10.667,10.667s4.771,10.667,10.667,10.667h64c5.896,0,10.667-4.771,10.667-10.667
				S229.896,85.333,224,85.333H160z"/>
			<path d="M245.333,128h-42.667c-5.896,0-10.667,4.771-10.667,10.667c0,5.896,4.771,10.667,10.667,10.667h42.667
				c5.896,0,10.667-4.771,10.667-10.667C256,132.771,251.229,128,245.333,128z"/>
		</g>
	</g>
</g>
<g>
</g>
<g>
</g>
<g>
</g>
<g>
</g>
<g>
</g>
<g>
</g>
<g>
</g>
<g>
</g>
<g>
</g>
<g>
</g>
<g>
</g>
<g>
</g>
<g>
</g>
<g>
</g>
<g>
</g>
</svg>
