<?xml version="1.0" encoding="iso-8859-1"?>
<!-- Generator: Adobe Illustrator 19.0.0, SVG Export Plug-In . SVG Version: 6.00 Build 0)  -->
<svg version="1.1" id="Capa_1" xmlns="http://www.w3.org/2000/svg" xmlns:xlink="http://www.w3.org/1999/xlink" x="0px" y="0px"
	 viewBox="0 0 512.002 512.002" style="enable-background:new 0 0 512.002 512.002;" xml:space="preserve">
<g>
	<g>
		<g>
			<path d="M509.531,323.834l-23.792-28.552c-55.26-66.312-126.156-119.885-205.031-154.937l-43.75-19.438
				c-21.26-9.448-43.823-14.24-67.083-14.24H42.667C19.135,106.668,0,125.803,0,149.334v202.667c0,2.833,1.125,5.542,3.125,7.542
				s4.719,3.125,7.542,3.125h0.01l9.312-0.01c0.01,0,0.021,0,0.021,0c21,0,39.219,14.229,44.313,34.594
				c1.177,4.75,5.448,8.083,10.344,8.083h384c3.563,0,6.896-1.781,8.875-4.75l42.667-64
				C512.833,332.657,512.552,327.47,509.531,323.834z M21.333,192.159l64-0.057v10.566c0,5.896,4.771,10.667,10.667,10.667h53.333
				c5.896,0,10.667-4.771,10.667-10.667v-10.633l26.906-0.023l-15.354,38.385c-11.396,28.51-38.615,46.937-69.323,46.937H21.333
				V192.159z M82.448,384.001c-9.74-25.104-33.708-42.135-61.115-42.667v-42.667h80.896c39.49,0,74.469-23.688,89.135-60.354
				l21.208-53.021c1.313-3.281,0.906-7.01-1.073-9.938c-1.99-2.938-5.292-4.688-8.833-4.688h-0.01l-181.323,0.158v-21.491
				c0-11.76,9.573-21.333,21.333-21.333h127.208c20.25,0,39.906,4.177,58.417,12.406l43.75,19.438
				c31.531,14.01,61.625,31.255,89.975,51.02L239.798,384.001H82.448z M452.958,384.001H265.927l113.47-160.745
				c33.118,25.049,63.408,53.841,89.947,85.693l18.698,22.427L452.958,384.001z"/>
			<path d="M132.771,321.126c-5.26-2.615-11.677-0.5-14.313,4.771l-10.667,21.333c-2.635,5.271-0.5,11.677,4.771,14.313
				c1.531,0.76,3.156,1.125,4.76,1.125c3.917,0,7.677-2.156,9.552-5.896l10.667-21.333
				C140.177,330.168,138.042,323.762,132.771,321.126z"/>
			<path d="M175.438,321.126c-5.26-2.615-11.677-0.5-14.313,4.771l-10.667,21.333c-2.635,5.271-0.5,11.677,4.771,14.313
				c1.531,0.76,3.156,1.125,4.76,1.125c3.917,0,7.677-2.156,9.552-5.896l10.667-21.333
				C182.844,330.168,180.708,323.762,175.438,321.126z"/>
			<circle cx="245.334" cy="202.668" r="10.667"/>
		</g>
	</g>
</g>
<g>
</g>
<g>
</g>
<g>
</g>
<g>
</g>
<g>
</g>
<g>
</g>
<g>
</g>
<g>
</g>
<g>
</g>
<g>
</g>
<g>
</g>
<g>
</g>
<g>
</g>
<g>
</g>
<g>
</g>
</svg>
